<svg width="517" height="38" viewBox="0 0 517 38" fill="none" xmlns="http://www.w3.org/2000/svg">
<path d="M482.818 19.3684C482.116 19.401 481.406 19.4241 480.718 19.472C480.272 19.5019 480.079 19.4186 479.78 19.3757C479.68 19.3607 479.573 19.3305 479.481 19.3346C478.786 19.3672 478.091 19.4036 477.395 19.44C477.184 19.5151 477.05 19.6146 476.724 19.6518C476.405 19.6871 476.029 19.6883 475.674 19.7065C475.206 19.7289 474.738 19.7513 474.27 19.7718C474.036 19.782 473.845 19.8188 473.767 19.8877C473.753 19.8992 473.91 19.9273 473.995 19.9442C474.28 20.0006 474.558 20.0646 474.871 20.1075C475.17 20.1486 475.538 20.0788 475.858 20.1313C476.577 20.2493 476.584 20.2473 477.131 20.2228C477.599 20.2004 478.067 20.1761 478.535 20.1595C478.628 20.1554 478.734 20.1836 478.834 20.1986C479.133 20.2397 479.326 20.3344 479.766 20.2969C480.099 20.2673 480.468 20.2604 480.815 20.2441C481.107 20.2986 481.378 20.3607 481.691 20.4036C481.983 20.4447 482.069 20.4769 481.913 20.5326C481.772 20.5846 481.573 20.6061 481.311 20.6107C481.077 20.6134 480.843 20.6312 480.608 20.6414C480.488 20.6475 480.374 20.6517 480.261 20.6578C479.814 20.6801 479.814 20.6801 478.996 20.5605C478.675 20.5138 478.315 20.5816 478.009 20.5368C477.802 20.5069 477.624 20.4616 477.425 20.4298C477.339 20.4167 477.204 20.4152 477.098 20.4193C476.743 20.4338 476.389 20.4444 476.048 20.4702C475.807 20.4881 475.666 20.5419 475.695 20.5952C475.702 20.6162 475.873 20.6462 475.973 20.6478C476.2 20.6509 476.441 20.6235 476.661 20.6362C476.874 20.6489 477.095 20.6864 477.252 20.7279C477.573 20.8146 477.933 20.7353 478.239 20.7573C478.559 20.7811 478.823 20.8566 479.129 20.9015C479.207 20.9127 479.356 20.8932 479.476 20.8871C479.824 20.8727 480.172 20.8602 480.519 20.8458C480.811 20.9002 481.124 20.9489 481.388 21.011C481.865 21.124 482.377 21.1663 482.994 21.1092C483.341 21.0776 483.682 21.088 483.96 21.1616C484.245 21.237 484.572 21.2284 484.934 21.212C485.267 21.1958 485.607 21.1528 485.949 21.2052C486.689 21.3212 486.696 21.3269 487.569 21.2785C487.831 21.2644 488.03 21.2599 488.229 21.3032C488.414 21.3427 488.614 21.3764 488.806 21.414C489.153 21.3996 489.508 21.3852 489.856 21.3689C490.303 21.3465 490.552 21.3725 490.66 21.479C490.725 21.5436 490.754 21.6027 490.911 21.6461C491.096 21.6989 491.295 21.6964 491.564 21.6803C491.82 21.6662 492.004 21.6447 492.109 21.5757C492.152 21.547 492.236 21.52 492.314 21.4969C492.378 21.4795 492.477 21.4525 492.534 21.4562C492.64 21.4635 492.782 21.484 492.818 21.5087C493.17 21.7384 493.17 21.7403 493.526 21.806C493.917 21.8792 494.323 21.9447 494.679 22.0276C495 22.101 495.319 22.0676 495.667 22.0666C495.929 22.0658 496.1 22.1149 496.08 22.1645C496.066 22.1932 495.967 22.2354 495.882 22.2395C495.187 22.2797 494.485 22.3143 493.782 22.3431C493.697 22.3471 493.59 22.3131 493.491 22.2963C493.291 22.2625 493.113 22.2097 492.9 22.1989C492.687 22.1881 492.439 22.2174 492.205 22.2277C491.971 22.2379 491.722 22.2635 491.509 22.2489C491.296 22.2342 491.125 22.1794 490.925 22.1438C490.833 22.1269 490.705 22.1025 490.627 22.1085C490.109 22.1558 489.725 22.094 489.355 22.0112C489.276 21.9943 489.141 21.9832 489.042 21.9874C488.219 22.0223 487.403 22.0629 486.58 22.1016C486.247 22.1178 485.976 22.0519 485.903 21.9396C485.867 21.8768 485.795 21.814 485.794 21.7511C485.792 21.6367 485.401 21.5749 485.117 21.5891C484.649 21.6096 484.173 21.6263 483.712 21.6563C483.336 21.6803 483.017 21.6584 482.76 21.5905C482.461 21.5132 482.12 21.5295 481.78 21.5515C481.524 21.5675 481.454 21.6307 481.471 21.7889C481.487 21.9167 481.367 21.9571 480.906 21.9794C480.324 22.0079 479.735 22.0364 479.146 22.0591C479.054 22.0632 478.947 22.0311 478.855 22.0142C478.655 21.9805 478.477 21.9257 478.264 21.9149C478.051 21.9022 477.803 21.9316 477.569 21.9437C477.334 21.954 477.086 21.9814 476.873 21.9687C476.66 21.956 476.482 21.8993 476.289 21.8637C476.197 21.8468 476.083 21.8223 475.991 21.8264C475.522 21.8431 475.054 21.8674 474.586 21.8898C474.061 21.9142 474.061 21.9142 473.314 21.7982C472.972 21.7459 472.632 21.7889 472.299 21.8051C471.944 21.8214 471.61 21.8301 471.332 21.7546C471.147 21.7056 470.941 21.6757 470.721 21.6859C470.132 21.7106 469.55 21.7409 468.961 21.7656C468.862 21.7697 468.727 21.7606 468.649 21.7436C468.271 21.6647 467.901 21.6028 467.376 21.6445C466.923 21.6802 466.433 21.6835 465.979 21.7173C465.731 21.7352 465.618 21.7966 465.668 21.8442C465.697 21.8689 465.847 21.897 465.946 21.8967C466.173 21.8979 466.421 21.8686 466.635 21.8794C467.075 21.9009 467.298 22.0605 467.872 22.0149C468.212 21.9872 468.567 21.9766 468.922 21.9679C469.014 21.9657 469.114 22.0016 469.214 22.0204C469.498 22.071 469.748 22.137 470.159 22.1014C470.5 22.0737 470.861 22.065 471.209 22.0487C471.762 22.0223 471.763 22.0242 472.481 22.1383C472.823 22.1926 473.163 22.1477 473.496 22.1334C473.745 22.1231 473.979 22.1033 474.178 22.1294C474.484 22.1685 474.705 22.2594 475.081 22.2525C475.436 22.2458 475.784 22.218 476.138 22.2074C476.358 22.201 476.565 22.2309 476.743 22.2819C476.928 22.3328 477.127 22.3551 477.369 22.3429C477.716 22.3266 478.071 22.3065 478.426 22.2959C478.525 22.2937 478.639 22.3105 478.732 22.3255C478.931 22.3592 479.123 22.3987 479.315 22.4343C479.663 22.4218 480.018 22.417 480.358 22.3931C480.621 22.3751 480.805 22.3822 481.019 22.4197C481.29 22.4704 481.511 22.5612 481.951 22.5161C482.17 22.4944 482.426 22.4994 482.646 22.4796C482.915 22.454 483.1 22.463 483.292 22.5196C483.656 22.6272 484.11 22.6278 484.578 22.5844C485.089 22.5371 485.473 22.5894 485.858 22.6721C486.264 22.7586 486.264 22.7567 486.579 22.9675C486.672 23.0282 486.935 23.056 487.155 23.0439C487.524 23.0237 487.844 23.0323 488.115 23.104C488.4 23.1813 488.74 23.1707 489.088 23.1487C489.549 23.1187 490.01 23.0926 490.388 23.202C490.573 23.2549 490.772 23.2676 491.021 23.2535C491.723 23.2171 492.432 23.194 493.12 23.1499C493.539 23.122 493.781 23.1823 494.066 23.2329C494.45 23.3023 494.87 23.364 494.872 23.5147C494.873 23.5394 494.973 23.5678 495.058 23.5866C495.243 23.6261 495.443 23.6598 495.635 23.6974C495.92 23.7537 496.197 23.8006 496.587 23.7689C496.928 23.7431 497.289 23.7343 497.637 23.7161C497.985 23.6979 498.304 23.6874 498.617 23.7589C498.981 23.8399 499.365 23.9169 499.778 23.9767C500.07 24.0197 500.452 23.9441 500.765 24.0023C500.957 24.038 501.143 24.0794 501.349 24.1093C501.434 24.1224 501.569 24.1124 501.683 24.1083C501.917 24.0999 502.158 24.0935 502.385 24.0737C502.647 24.052 502.846 24.0552 503.046 24.0985C503.231 24.1379 503.416 24.1927 503.629 24.2035C503.949 24.2197 504.303 24.1423 504.624 24.2291C504.788 24.2725 504.994 24.3138 505.207 24.3265C505.42 24.3392 505.668 24.3099 505.896 24.3111C505.995 24.3108 506.116 24.341 506.173 24.3656C506.209 24.3788 506.16 24.4152 506.111 24.4344C506.047 24.4575 505.955 24.4883 505.863 24.4924C505.161 24.5288 504.458 24.5596 503.756 24.5941C503.337 24.6144 503.337 24.6144 502.491 24.4968C502.292 24.4688 502.072 24.4752 501.823 24.4893C501.49 24.5075 501.15 24.5409 500.801 24.5076C500.345 24.3793 499.784 24.3695 499.188 24.4209C498.94 24.4427 498.713 24.4433 498.528 24.4077C498.136 24.3364 497.724 24.2709 497.375 24.1861C497.104 24.1202 496.976 24.1148 496.864 24.2067C496.829 24.2354 496.794 24.266 496.801 24.2927C496.845 24.3879 496.925 24.4812 496.969 24.5764C496.983 24.603 496.927 24.6337 496.892 24.6625C496.78 24.7429 496.63 24.7376 496.381 24.6716C496.131 24.6056 495.833 24.5627 495.436 24.5944C495.095 24.6221 494.726 24.6194 494.386 24.649C493.861 24.6926 493.491 24.6326 493.113 24.5518C493.035 24.5348 492.9 24.5257 492.801 24.5298C491.744 24.5769 490.694 24.6296 489.637 24.6767C489.41 24.6869 489.203 24.6589 489.025 24.608C488.84 24.557 488.633 24.5309 488.406 24.5412C487.47 24.584 486.533 24.6231 485.597 24.6755C485.214 24.6976 484.908 24.6737 484.645 24.6078C484.445 24.5588 484.26 24.5441 484.012 24.5506C483.742 24.5571 483.551 24.5768 483.417 24.6325C483.29 24.6863 483.383 24.7184 483.667 24.7595C483.973 24.8043 484.258 24.8626 484.55 24.9152C484.784 24.9068 485.018 24.8908 485.245 24.8921C485.345 24.8918 485.438 24.9258 485.537 24.9446C485.822 24.999 486.086 25.0536 486.49 25.0218C486.83 24.9941 487.192 24.9873 487.54 24.9691C488.022 24.9466 488.022 24.9466 488.805 25.0644C489.004 25.0944 489.217 25.0918 489.472 25.0739C489.692 25.0599 489.92 25.0859 490.077 25.1426C490.141 25.1653 490.12 25.2035 489.987 25.3298C489.989 25.4233 490.137 25.3808 490.186 25.3197C490.263 25.2317 490.113 25.2035 489.83 25.2521C489.632 25.287 489.533 25.3369 489.583 25.3768C489.612 25.3977 489.747 25.424 489.987 25.3298C490.61 25.2135 491.086 25.1987 491.54 25.1668C491.809 25.1488 491.98 25.156 492.193 25.2049C492.45 25.2632 492.706 25.3254 493.125 25.2937C493.579 25.258 494.061 25.2527 494.522 25.2227C494.948 25.1947 495.169 25.278 495.44 25.3267C495.767 25.3849 496.128 25.317 496.427 25.3505C496.74 25.3838 496.961 25.4671 497.323 25.4813C497.848 25.4282 498.183 25.5225 498.581 25.5843C498.894 25.631 499.263 25.5879 499.596 25.566C499.972 25.5419 500.285 25.562 500.549 25.6299C500.848 25.7071 501.181 25.689 501.522 25.6708C502.316 25.6302 502.345 25.6244 502.808 25.7279C503.142 25.8032 503.462 25.7679 503.795 25.7574C504.087 25.808 504.372 25.8624 504.678 25.9073C504.756 25.9185 504.905 25.899 505.025 25.8929C505.373 25.8766 505.728 25.8603 506.075 25.844C506.309 25.8337 506.557 25.8044 506.771 25.8152C506.984 25.8279 507.162 25.8827 507.354 25.9183C507.547 25.954 507.746 25.9896 507.931 26.0272C508.216 26.0836 508.486 26.1304 508.883 26.1006C509.224 26.0748 509.579 26.0661 509.933 26.0479C510.38 26.0255 510.366 26.0313 511.198 26.1432C511.647 26.2048 512.107 26.1272 512.561 26.1182C512.788 26.1137 513.009 26.134 513.166 26.1888C513.23 26.2115 513.209 26.2497 513.231 26.2821C512.06 26.3371 510.883 26.3845 509.726 26.4509C509.28 26.4771 509.044 26.4091 508.802 26.3526C508.403 26.2623 507.88 26.3973 507.502 26.2802C507.273 26.2104 506.946 26.1713 506.556 26.2068C506.329 26.2266 506.088 26.2254 505.854 26.2432C505.258 26.287 504.712 26.2906 504.234 26.1604C504.07 26.1151 503.836 26.091 503.665 26.0477C503.465 26.0006 503.273 25.9745 503.039 25.9847C501.982 26.0337 500.932 26.0826 499.882 26.1354C499.79 26.1394 499.698 26.1683 499.62 26.1896C499.422 26.2435 499.487 26.2853 499.807 26.3187C499.913 26.3298 499.999 26.3543 500.099 26.3731C500.291 26.4088 500.469 26.4655 500.682 26.4782C500.895 26.4909 501.144 26.4634 501.378 26.4532C501.612 26.4429 501.86 26.4136 502.073 26.4244C502.286 26.4371 502.464 26.4919 502.664 26.5256C502.756 26.5425 502.87 26.5708 502.963 26.5686C503.431 26.5557 503.892 26.5333 504.36 26.5148C504.652 26.5654 504.902 26.639 505.25 26.6551C505.47 26.6659 505.704 26.6442 505.931 26.6473C506.031 26.649 506.159 26.6772 506.209 26.7018C506.238 26.717 506.146 26.7554 506.075 26.7747C505.807 26.848 505.437 26.8357 505.104 26.8596C504.742 26.8855 504.416 26.8789 504.138 26.8053C503.952 26.7563 503.746 26.7302 503.519 26.7405C502.93 26.767 502.348 26.7974 501.759 26.8201C501.66 26.8243 501.539 26.8074 501.447 26.7944C500.7 26.6803 500.699 26.6765 500.175 26.7028C499.401 26.7414 499.401 26.7414 498.882 26.6419C498.782 26.6231 498.675 26.5872 498.59 26.5894C497.767 26.6224 496.951 26.6553 496.135 26.7017C495.865 26.7158 495.681 26.7164 495.481 26.6674C495.31 26.626 495.111 26.5789 494.898 26.5681C494.677 26.5573 494.437 26.5866 494.202 26.5969C493.968 26.6071 493.72 26.6326 493.514 26.618C493.301 26.6034 493.115 26.5506 492.93 26.513C492.738 26.4735 492.532 26.476 492.27 26.492C491.461 26.5384 491.454 26.5327 490.65 26.4168C490.557 26.4038 490.437 26.3889 490.337 26.393C489.748 26.4176 489.167 26.448 488.578 26.4727C488.351 26.4829 488.13 26.4588 487.973 26.4039C487.909 26.3812 487.93 26.343 487.886 26.2688C487.836 26.2517 487.893 26.2821 487.908 26.3107C488.014 26.3065 488.142 26.3099 488.22 26.2945C488.418 26.2576 488.517 26.2096 488.467 26.1697C488.438 26.1488 488.303 26.1225 488.218 26.1228C488.061 26.1233 487.927 26.1656 487.886 26.2688C487.44 26.333 486.964 26.3478 486.503 26.3797C486.234 26.3996 486.063 26.3906 485.85 26.3417C485.593 26.2814 485.33 26.2231 484.911 26.2548C484.457 26.2905 483.975 26.2977 483.507 26.3258C482.968 26.358 482.731 26.187 482.276 26.1922C481.808 26.1974 481.34 26.2313 480.872 26.2556C480.46 26.2759 480.46 26.2759 479.606 26.1545C479.293 26.1096 478.925 26.1775 478.619 26.1307C478.413 26.1008 478.235 26.0556 478.036 26.0238C477.95 26.0107 477.815 26.0111 477.709 26.0152C477.12 26.0399 476.524 26.057 475.957 26.1006C475.311 26.1522 474.821 26.1002 474.358 25.9891C473.776 26.0118 473.187 26.0251 472.612 26.063C472.194 26.091 471.951 26.0288 471.667 25.9781C471.567 25.9613 471.482 25.9329 471.375 25.9256C471.268 25.9183 471.141 25.9339 471.027 25.94C470.559 25.9624 470.076 25.9734 469.622 26.0091C469.062 26.0546 468.847 25.8989 468.414 25.8811C468.124 25.9755 467.97 26.1037 467.395 26.115C466.927 26.124 466.459 26.1559 465.99 26.1783C465.756 26.1886 465.522 26.2007 465.288 26.211C464.912 26.2293 464.736 26.3042 464.816 26.4184C464.859 26.4812 464.895 26.544 464.932 26.6068C465.005 26.7191 464.829 26.815 464.531 26.8293C463.708 26.868 462.892 26.9086 462.069 26.9435C461.849 26.9537 461.635 26.9219 461.457 26.8709C461.272 26.82 461.066 26.7978 460.839 26.808C460.016 26.8467 459.2 26.8873 458.377 26.9222C458.285 26.9263 458.164 26.9076 458.071 26.8926C457.872 26.8589 457.68 26.8194 457.487 26.7837C457.019 26.8023 456.558 26.8151 456.097 26.8394C455.352 26.876 455.352 26.8779 454.804 26.7747C454.704 26.7559 454.604 26.72 454.512 26.7221C454.157 26.7308 453.809 26.751 453.455 26.7692C452.412 26.8219 452.412 26.8219 452.106 26.7656C451.828 26.7131 451.579 26.649 451.16 26.6807C450.706 26.7164 450.224 26.7293 449.756 26.7498C449.408 26.7642 449.06 26.7805 448.713 26.7854C448.62 26.7876 448.52 26.7516 448.421 26.7329C448.136 26.6746 447.858 26.6277 447.468 26.6613C447.241 26.6811 447 26.6856 446.766 26.6959C446.156 26.7244 446.156 26.7244 445.153 26.613C445.054 26.6019 444.933 26.5889 444.833 26.5949C444.01 26.6317 443.195 26.6723 442.372 26.7072C442.272 26.7113 442.152 26.7002 442.052 26.691C440.929 26.5838 440.929 26.5838 439.737 26.6408C439.283 26.6612 439.269 26.6689 438.791 26.5692C438.578 26.526 438.4 26.5056 438.152 26.5197C437.215 26.5683 436.272 26.6016 435.343 26.6578C434.924 26.682 434.682 26.6255 434.397 26.5748C434.297 26.558 434.19 26.5202 434.105 26.5223C433.169 26.5614 432.232 26.6081 431.296 26.6471C431.211 26.6512 431.104 26.6134 431.004 26.5965C430.812 26.5628 430.626 26.5118 430.413 26.501C430.193 26.4902 429.952 26.5196 429.711 26.5298C429.122 26.5564 429.122 26.5545 428.439 26.444C428.346 26.4291 428.225 26.4084 428.133 26.4125C427.196 26.4535 426.253 26.4888 425.324 26.5469C424.792 26.579 424.429 26.5248 424.051 26.4458C423.973 26.4289 423.838 26.4216 423.739 26.4258C422.682 26.4728 421.632 26.5256 420.575 26.5726C420.355 26.5828 420.141 26.551 419.963 26.502C419.678 26.4246 419.344 26.4352 418.99 26.4534C418.174 26.4959 418.167 26.494 417.683 26.404C417.583 26.3852 417.497 26.3606 417.391 26.3514C417.291 26.3422 417.164 26.3483 417.057 26.3524C416.589 26.3729 416.121 26.3953 415.652 26.4177C415.184 26.4401 414.709 26.453 414.248 26.4868C413.68 26.5285 413.409 26.4054 413.01 26.3493C412.429 26.3759 411.833 26.393 411.258 26.4347C410.818 26.4666 410.611 26.3833 410.32 26.3403C410.22 26.3253 410.113 26.2932 410.021 26.2973C408.964 26.3425 407.907 26.3914 406.857 26.4461C406.601 26.4583 406.431 26.4436 406.217 26.3984C405.74 26.2969 405.719 26.3008 404.924 26.3413C404.577 26.3595 404.243 26.3758 403.944 26.2985C403.68 26.2287 403.36 26.2125 402.984 26.2365C402.523 26.2665 402.048 26.2832 401.58 26.3037C401.112 26.3261 400.643 26.3561 400.175 26.367C399.799 26.3777 399.57 26.2888 399.272 26.2439C399.179 26.2308 399.051 26.2293 398.945 26.2334C398.477 26.252 397.994 26.2668 397.54 26.3006C396.987 26.3423 396.68 26.2383 396.289 26.1785C396.203 26.1654 396.061 26.1735 395.955 26.1795C395.132 26.2163 394.316 26.2569 393.493 26.2956C393.202 26.245 392.903 26.1963 392.611 26.1457C392.143 26.1662 391.674 26.1886 391.206 26.2091C390.851 26.2254 390.489 26.2322 390.156 26.2618C389.724 26.3013 389.509 26.2123 389.218 26.1693C389.118 26.1543 389.011 26.1222 388.919 26.1263C388.33 26.1491 387.741 26.1737 387.159 26.2079C386.606 26.242 386.384 26.071 385.929 26.0743C385.461 26.0776 384.978 26.1038 384.525 26.1395C384 26.1812 383.63 26.1213 383.252 26.0404C383.174 26.0234 383.039 26.0143 382.94 26.0184C382.351 26.0431 381.769 26.0735 381.18 26.0981C381.081 26.1022 380.96 26.0931 380.861 26.0819C379.737 25.9728 379.737 25.9709 379.248 25.9952C378.9 26.0115 378.545 26.0317 378.191 26.0423C378.091 26.0464 377.97 26.0296 377.878 26.0146C377.138 25.9005 377.137 25.8986 376.605 25.9231C376.137 25.9455 375.669 25.9679 375.201 25.9902C374.909 25.9396 374.61 25.891 374.318 25.8403C373.736 25.8669 373.14 25.8877 372.566 25.9238C372.296 25.9399 372.119 25.9347 371.912 25.8876C371.656 25.8312 371.399 25.7652 370.974 25.7989C370.52 25.8346 370.037 25.8399 369.576 25.8699C369.023 25.9059 368.793 25.733 368.346 25.7363C367.878 25.7396 367.395 25.7658 366.941 25.8015C366.417 25.8431 366.047 25.7832 365.669 25.7024C365.591 25.6854 365.456 25.6763 365.356 25.6804C364.065 25.7396 362.781 25.7988 361.49 25.8618C360.696 25.9004 360.696 25.9023 359.182 25.802C359.075 25.7947 358.961 25.7874 358.855 25.7916C358.387 25.8101 357.904 25.8249 357.45 25.8587C356.897 25.9004 356.59 25.7984 356.199 25.7366C356.114 25.7235 355.979 25.7315 355.865 25.7357C355.511 25.7501 355.163 25.7684 354.808 25.7847C354.34 25.8071 353.872 25.8295 353.404 25.8518C353.112 25.8031 352.813 25.7525 352.521 25.7038C351.939 25.7304 351.343 25.7455 350.769 25.7873C350.329 25.8191 350.122 25.7397 349.83 25.6948C349.731 25.6798 349.624 25.6477 349.531 25.6499C348.474 25.695 347.417 25.7421 346.367 25.7986C345.935 25.8228 345.735 25.7376 345.443 25.6946C345.343 25.6816 345.229 25.6571 345.137 25.6612C344.435 25.69 343.733 25.7246 343.03 25.7591C342.633 25.7794 342.633 25.7794 341.765 25.6637C341.665 25.6507 341.552 25.6377 341.452 25.6418C339.225 25.7439 337.004 25.8516 334.777 25.9537C334.55 25.9639 334.343 25.936 334.165 25.885C333.98 25.8341 333.773 25.808 333.546 25.8182C332.61 25.8611 331.666 25.9002 330.737 25.9525C330.354 25.9747 330.048 25.9508 329.785 25.8848C329.585 25.8358 329.4 25.8173 329.152 25.8295C328.684 25.8538 328.216 25.8743 327.747 25.8967C327.279 25.9191 326.811 25.9415 326.343 25.9639C325.875 25.9863 325.399 25.9991 324.938 26.0329C324.371 26.0747 324.092 25.9573 323.701 25.8994C322.998 25.9301 322.296 25.9608 321.601 25.9934C320.664 26.0363 319.728 26.083 318.791 26.1239C318.706 26.128 318.599 26.094 318.5 26.0771C318.208 26.0303 317.994 25.9642 317.561 25.9865C315.461 26.0939 313.347 26.1861 311.24 26.2916C310.8 26.3139 310.608 26.2325 310.309 26.1895C310.209 26.1765 310.095 26.1501 310.003 26.1542C308.832 26.2054 307.662 26.2624 306.491 26.3174C306.016 26.3398 306.016 26.3398 305.219 26.2239C305.127 26.2109 305.005 26.1941 304.906 26.1982C303.381 26.2676 301.863 26.3409 300.337 26.4122C300.11 26.4224 299.904 26.3963 299.719 26.3454C299.541 26.2944 299.327 26.2665 299.107 26.2767C297.703 26.3419 296.291 26.4053 294.893 26.4763C294.517 26.4965 294.205 26.4803 293.934 26.4124C293.741 26.3634 293.549 26.343 293.308 26.3552C291.201 26.455 289.094 26.551 286.987 26.6565C286.583 26.6768 286.299 26.6414 286.042 26.5792C285.835 26.5303 285.658 26.5213 285.402 26.5297C285.133 26.54 284.97 26.5615 284.822 26.6191C284.631 26.6941 284.512 26.7879 284.057 26.795C283.589 26.8021 283.114 26.8265 282.653 26.8603C282.213 26.894 282.006 26.8088 281.728 26.7582C281.522 26.7225 281.33 26.7174 281.068 26.7354C280.827 26.7513 280.678 26.7842 280.537 26.8457C280.227 26.9763 280.198 26.9764 279.814 26.8955C279.607 26.8523 279.422 26.8185 279.195 26.8268C278.258 26.8678 277.322 26.9126 276.385 26.9592C275.846 26.9857 275.839 26.9895 275.433 26.8954C275.234 26.8483 275.042 26.826 274.808 26.8381C272.232 26.9603 269.657 27.0787 267.082 27.2066C266.685 27.2269 266.414 27.1876 266.13 27.1313C266.037 27.1125 265.944 27.0861 265.838 27.0787C265.731 27.0714 265.611 27.0794 265.497 27.0836C263.624 27.1712 261.744 27.2551 259.878 27.3523C259.453 27.3745 259.225 27.3142 258.933 27.2655C258.833 27.2486 258.748 27.2222 258.641 27.2149C258.534 27.2095 258.407 27.2232 258.293 27.2293C256.42 27.3169 254.54 27.4008 252.675 27.498C252.228 27.5203 252.035 27.4408 251.743 27.3997C251.644 27.3847 251.537 27.3564 251.445 27.3605C250.856 27.3833 250.274 27.4136 249.685 27.4402C248.281 27.5074 246.876 27.5707 245.471 27.6398C244.932 27.6662 244.695 27.4972 244.241 27.5062C243.652 27.5175 243.07 27.5574 242.481 27.5859C242.013 27.6083 241.545 27.6288 241.077 27.653C240.616 27.6754 240.616 27.6754 239.464 27.5683C239.364 27.559 239.244 27.546 239.144 27.5501C237.505 27.6257 235.86 27.7012 234.228 27.7824C233.852 27.8007 233.539 27.7921 233.269 27.7223C233.076 27.6733 232.877 27.6491 232.643 27.6613C230.181 27.7774 227.727 27.8935 225.265 28.0077C225.173 28.0118 225.052 27.9931 224.959 27.9781C224.76 27.9444 224.568 27.9049 224.375 27.8693C224.234 27.9136 224.05 27.9542 223.959 28.004C223.832 28.0712 223.662 28.0908 223.392 28.103C223.123 28.1153 222.952 28.112 222.738 28.063C222.482 28.0028 222.218 27.9559 221.8 27.9762C219.225 28.1041 216.649 28.2206 214.074 28.3466C213.649 28.367 213.449 28.2836 213.15 28.2407C213.05 28.2276 212.936 28.207 212.844 28.2111C211.787 28.2581 210.737 28.309 209.68 28.3579C206.75 28.4964 203.82 28.6293 200.897 28.7754C200.365 28.8018 200.003 28.7552 199.625 28.6743C199.547 28.6574 199.412 28.6482 199.312 28.6524C195.212 28.844 191.111 29.0375 187.018 29.231C186.798 29.2412 186.585 29.2114 186.406 29.1623C186.221 29.1114 186.015 29.0872 185.788 29.0974C183.915 29.1851 182.042 29.2727 180.169 29.3623C179.701 29.3847 179.694 29.3866 179.21 29.2965C179.11 29.2777 179.003 29.2418 178.925 29.2459C178.762 29.2559 178.606 29.3041 178.494 29.3692C178.381 29.4382 178.204 29.4578 177.942 29.472C177.672 29.4862 177.495 29.481 177.288 29.4358C177.024 29.3794 176.782 29.3248 176.357 29.3452C170.972 29.6055 165.588 29.8563 160.203 30.1148C159.77 30.1351 159.57 30.0556 159.271 30.0127C159.172 29.9996 159.072 29.9808 158.966 29.9773C158.852 29.9739 158.732 29.9857 158.618 29.9918C149.835 30.4054 141.053 30.8209 132.27 31.2345C131.745 31.259 131.752 31.259 131.18 31.4362C131.109 31.4574 131.017 31.4862 130.918 31.4903C128.229 31.6205 125.533 31.7469 122.838 31.8732C121.667 31.9283 120.497 31.9852 119.326 32.0383C118.907 32.0568 118.907 32.0568 117.91 32.2657C117.825 32.2832 117.726 32.3063 117.626 32.3105C112.944 32.5325 108.262 32.7544 103.572 32.9726C103.204 32.989 102.906 33.0242 102.737 33.1163C102.617 33.1815 102.462 33.2201 102.228 33.2323C98.9501 33.3871 95.6727 33.5438 92.388 33.6948C91.9978 33.7132 91.7642 33.7673 91.5738 33.848C91.5103 33.8749 91.454 33.9055 91.362 33.9249C91.277 33.9423 91.1494 33.9484 91.043 33.9545C88.2337 34.0869 85.4245 34.2232 82.608 34.3499C82.1894 34.3683 82.02 34.4394 81.8153 34.5144C81.7447 34.5394 81.6954 34.5739 81.6034 34.5913C81.5114 34.6068 81.3765 34.6073 81.263 34.6114C78.9219 34.7215 76.5809 34.8334 74.2397 34.9434C73.7853 34.9353 73.6875 35.0462 73.4685 35.1136C73.3907 35.1367 73.3345 35.1674 73.2425 35.1829C73.1433 35.1985 73.0153 35.197 72.8947 35.2011C71.0218 35.2888 69.1491 35.3822 67.269 35.4641C66.8362 35.4826 66.7525 35.5801 66.5192 35.6476C66.4414 35.6688 66.3639 35.7015 66.2717 35.7075C65.1012 35.7663 63.9307 35.8213 62.7602 35.8744C62.37 35.8928 62.3699 35.8909 61.6842 36.0817C61.6064 36.103 61.5144 36.1261 61.4151 36.1321C59.6629 36.2175 57.9035 36.2991 56.1442 36.3826C55.9171 36.3928 55.7617 36.4391 55.6491 36.5043C55.5365 36.5694 55.3739 36.6119 55.1469 36.6221C53.7422 36.6893 52.3375 36.7583 50.9327 36.8198C50.5425 36.8362 50.2878 36.8847 50.1187 36.971C49.9919 37.0362 49.8362 37.0691 49.5879 37.0813C48.1832 37.1466 46.7787 37.2176 45.3668 37.2752C44.9553 37.2917 44.7432 37.3572 44.5741 37.4378C44.4402 37.5031 44.2843 37.5264 44.0218 37.5387C41.4466 37.657 38.8643 37.7754 36.2963 37.9052C35.8636 37.9275 35.6425 37.8614 35.3578 37.8146C34.9521 37.7491 34.5749 37.6777 34.5726 37.529C34.5722 37.5061 34.4511 37.4798 34.3656 37.4609C33.7316 37.3198 33.7316 37.3198 33.6299 37.1675C33.5717 37.0743 33.5063 36.9791 33.4552 36.8839C33.3605 36.7278 33.1327 36.6884 32.48 36.719C32.2459 36.7292 32.0118 36.7433 31.7777 36.7516C31.43 36.766 31.1664 36.7039 31.1008 36.5896C31.0643 36.5268 31.0208 36.464 30.9844 36.4012C31.3391 36.3848 31.3319 36.383 31.9531 36.1503C32.2142 36.0523 32.2143 36.0523 31.7088 35.9565C31.5166 35.9209 31.3314 35.8813 31.125 35.8476C31.0325 35.8327 30.9117 35.8235 30.8123 35.8276C30.2235 35.8523 29.6418 35.8807 29.0601 35.9092C28.1236 35.954 28.1235 35.9539 27.1693 35.7623C27.091 35.7473 26.9698 35.719 26.9838 35.7037C27.0608 35.6329 27.252 35.6018 27.4932 35.5935C27.848 35.581 28.1956 35.5608 28.5432 35.5445C28.7773 35.5343 29.0114 35.5222 29.2455 35.5119C29.4645 35.4388 29.6907 35.3675 29.8954 35.2925C30.2202 35.1771 30.2201 35.1733 29.7716 35.0945C29.4868 35.042 29.1808 34.9952 28.889 34.9465C28.5414 34.9628 28.1867 34.9811 27.8391 34.9955C27.3992 35.014 27.2212 34.9783 27.1057 34.8546C27.0046 34.7462 27.1239 34.6524 27.4643 34.6285C27.8118 34.6046 28.1383 34.5883 28.3143 34.4905C28.4832 34.3966 28.7808 34.3594 29.1498 34.3507C29.384 34.3443 29.618 34.3302 29.8521 34.3181C30.1572 34.3019 30.319 34.2041 30.2534 34.0956C30.2169 34.0252 30.1449 33.9663 29.8679 33.9518C28.6387 33.8888 28.6245 33.8907 28.012 33.7629C27.955 33.7516 27.912 33.7174 27.933 33.7002C27.9681 33.6715 28.0455 33.6293 28.1306 33.6233C28.9464 33.5789 29.7622 33.5383 30.5781 33.5072C30.8477 33.4969 31.0463 33.4829 31.1375 33.4121C31.2638 33.3144 31.2057 33.225 30.9562 33.159C30.8778 33.1382 30.7495 33.1119 30.6643 33.1141C29.7278 33.1512 28.7985 33.1979 27.8619 33.235C27.7768 33.2391 27.6202 33.2072 27.5843 33.1825C27.5127 33.1369 27.6181 33.0756 27.8663 33.0538C28.1924 33.0242 28.526 33.0213 28.7446 32.9253C29.0478 32.789 29.4221 32.6639 29.7609 32.5332C29.8174 32.5101 29.9091 32.466 29.8877 32.4622C29.7096 32.4208 29.5032 32.389 29.318 32.3495C29.0047 32.2837 29.0032 32.1902 29.0728 32.1004C29.1285 32.0278 29.341 31.9985 29.6037 31.9977C29.7173 31.9974 29.8592 31.9969 29.9513 31.9795C30.192 31.9368 30.2693 31.8832 30.148 31.8435C30.0766 31.8208 29.9484 31.7888 29.8633 31.7929C28.3451 31.8604 26.8196 31.926 25.3087 32.0087C24.8618 32.033 24.655 31.9611 24.3844 31.9104C24.1779 31.871 23.9859 31.8563 23.7308 31.8857C23.4898 31.9131 23.2554 31.8986 23.1054 31.8361C22.9839 31.785 23.1962 31.7405 23.7704 31.6891C23.8768 31.6793 23.9973 31.6732 24.0751 31.6539C24.8955 31.4454 24.8954 31.4435 25.4629 31.4151C26.0163 31.3887 26.0164 31.3868 26.3057 31.2753C26.4398 31.2234 26.588 31.1714 26.715 31.1176C26.7643 31.0965 26.8491 31.0581 26.8205 31.0467C26.6634 30.9881 26.4501 30.9754 26.2019 30.9895C25.6487 31.0236 24.9952 30.9988 24.7069 31.1809C24.5944 31.2499 24.4172 31.2695 24.1618 31.2817C21.5937 31.4001 19.0255 31.5261 16.4502 31.6406C16.0316 31.6591 15.8411 31.7302 15.6791 31.8089C15.5381 31.8742 15.3821 31.8937 15.1126 31.906C14.843 31.9182 14.63 31.9246 14.4728 31.8621C14.38 31.8242 14.4573 31.7706 14.6694 31.7166C14.9735 31.6394 14.9152 31.5442 14.8145 31.4548C14.7426 31.3959 14.5219 31.3546 14.2877 31.3591C13.9399 31.3678 13.6067 31.3898 13.3145 31.3144C13.1434 31.271 12.93 31.2412 12.7377 31.2036C12.3674 31.1265 11.997 31.0475 11.4795 31.1006C11.1243 31.0826 10.8748 31.0147 10.59 30.9621C10.113 30.8758 10.0702 30.8626 10.4095 30.7681C10.7913 30.6621 10.491 30.5257 10.7024 30.422C10.9279 30.3107 11.2388 30.2126 11.5141 30.1087C11.5847 30.0818 11.6482 30.0568 11.7188 30.0299C11.555 29.9923 11.4052 29.945 11.2131 29.9189C10.9641 29.8853 10.8357 29.8438 10.8481 29.7255C10.7981 29.7085 10.8199 29.7523 10.8769 29.7635C10.941 29.7748 11.0971 29.7648 11.175 29.7512C11.3732 29.7144 11.4718 29.6664 11.4215 29.6265C11.3928 29.6056 11.2576 29.5793 11.1724 29.5795C11.0162 29.58 10.882 29.6224 10.841 29.7255C10.0471 29.8061 9.22404 29.8467 8.40102 29.8797C8.31589 29.8838 8.20888 29.8459 8.1092 29.8272C7.78166 29.7633 7.78165 29.7652 6.82299 29.749C6.72357 29.7474 6.58835 29.7211 6.53825 29.6946C6.3306 29.5789 6.3358 29.4511 6.23453 29.3274C6.41788 29.2467 6.60111 29.168 6.79159 29.0892C7.17252 28.9298 7.66744 28.7891 7.96295 28.6146C7.89763 28.5214 7.811 28.4282 8.12219 28.3509C9.00812 28.2529 9.00107 28.2529 9.24104 28.1607C9.92569 27.8992 10.6032 27.6359 11.3163 27.3782C11.5069 27.3108 11.5064 27.2746 11.1652 27.247C11.0586 27.2397 10.9448 27.2381 10.8313 27.2423C10.4766 27.2567 10.1221 27.2921 9.77417 27.2855C9.42623 27.2809 9.16938 27.1977 8.88464 27.1471C8.59276 27.0946 8.30087 27.0401 8.00897 26.9857C7.6754 26.9924 7.34262 27.0468 7.00766 26.962C6.75107 26.896 6.43091 26.8493 6.13901 26.7949C6.35686 26.6493 6.76698 26.5374 7.08448 26.4087C7.37377 26.2915 7.38074 26.2934 8.16026 26.2014C8.52877 26.1583 8.65327 25.9424 8.33995 25.8804C7.96254 25.8052 7.564 25.7359 7.17954 25.6646C6.84598 25.6713 6.50608 25.7238 6.18531 25.639C5.93586 25.5749 5.65117 25.5318 5.2398 25.5579C4.54474 25.6019 3.83518 25.6251 3.1329 25.6615C2.89171 25.6737 2.62885 25.6668 2.52137 25.6023C2.44969 25.5568 2.65461 25.4932 2.88867 25.4791C3.24333 25.459 3.56241 25.4352 3.73843 25.3393C3.90735 25.2434 4.21923 25.2138 4.58818 25.1994C4.68751 25.1953 4.80082 25.172 4.85017 25.149C5.10404 25.0376 5.38657 24.9414 5.93325 24.9436C6.15984 24.9047 6.27972 24.8567 6.20803 24.8111C6.16506 24.7865 6.01556 24.7545 5.93043 24.7586C5.3415 24.7794 4.75259 24.8003 4.1781 24.8363C3.90857 24.8524 3.70264 24.8568 3.53139 24.8001C3.41013 24.7624 3.47322 24.7107 3.69955 24.6547C3.89759 24.6064 3.9536 24.5509 3.93842 24.4861C3.90062 24.3356 3.68694 24.2923 3.00558 24.3039C2.51586 24.313 2.39479 24.2886 2.28632 24.1592C2.25746 24.1288 2.18596 24.0871 2.23533 24.0659C2.53861 23.9353 2.73495 23.7745 3.30904 23.7118C3.53586 23.6882 3.77713 23.6875 3.91835 23.6375C4.05957 23.5875 4.18654 23.5298 4.3349 23.4817C4.5186 23.4239 4.64544 23.3702 4.5597 23.3342C4.41673 23.2698 4.18955 23.2647 3.92723 23.2884C3.70036 23.3082 3.45902 23.3108 3.22493 23.3229C2.80641 23.3452 2.46498 23.2966 2.414 23.2129C2.27574 22.992 2.13037 22.7732 2.00631 22.5523C1.9917 22.5256 2.02658 22.4912 2.08302 22.4681C2.28057 22.3874 2.49246 22.3105 2.69714 22.2317C2.93713 22.1413 3.32081 22.1573 3.6471 22.1392C4.10816 22.113 4.10803 22.1149 4.72285 21.93C4.96311 21.8568 5.38241 21.8841 5.62988 21.8185C5.70765 21.7973 5.82781 21.7626 5.80622 21.7436C5.77745 21.7189 5.63525 21.7003 5.52859 21.6891C5.42903 21.678 5.30829 21.6726 5.20189 21.6787C3.91071 21.7379 2.62673 21.8009 1.33552 21.8582C1.11559 21.8684 0.87358 21.8271 0.794588 21.7683C0.715654 21.7132 0.735862 21.6463 0.720703 21.5835C0.925381 21.5046 1.15845 21.4315 1.33465 21.347C1.46854 21.2818 1.62431 21.2527 1.89401 21.2481C2.24888 21.2413 2.59641 21.2173 2.9937 21.199C3.72774 20.9183 4.44734 20.6243 5.23818 20.3435C5.55592 20.23 5.47621 20.1158 5.53826 19.9955C5.60047 19.8847 6.07634 19.9004 6.3953 19.867C6.65045 19.8396 6.7346 19.7783 6.63457 19.7366C6.5774 19.712 6.44925 19.6838 6.34987 19.6841C6.1156 19.6848 5.8816 19.7026 5.64748 19.7129C5.41335 19.7231 5.14352 19.7182 4.95234 19.7512C4.76823 19.7823 4.64847 19.8475 4.52863 19.9032C4.39468 19.9646 4.21765 19.9861 3.94794 19.9907C3.60015 19.9956 3.25258 20.0138 2.90493 20.0282C2.52045 19.955 2.12171 19.8837 1.75137 19.8066C1.68015 19.7916 1.6652 19.7478 1.67186 19.7192C1.68493 19.6447 1.57777 19.5993 1.34295 19.5637C1.14371 19.5338 0.979749 19.4905 0.794592 19.4529C0.935786 19.4009 1.09126 19.3509 1.204 19.2952C1.45069 19.1781 1.7618 19.0933 2.30139 19.0955C2.51322 19.0205 2.68215 18.9284 2.95823 18.8761C3.22014 18.8257 3.66815 18.8739 3.86521 18.7608C3.96375 18.7052 4.11195 18.6418 4.30328 18.6184C4.60798 18.5812 5.00581 18.5991 5.18166 18.4918C5.28721 18.4304 5.44248 18.3746 5.64812 18.3587C5.88212 18.3409 6.12337 18.3363 6.29319 18.2996C6.38519 18.2802 6.48413 18.2494 6.48372 18.2227C6.48346 18.2056 6.34118 18.1793 6.24162 18.1681C6.14913 18.1551 6.02816 18.1459 5.92173 18.15C5.56695 18.1625 5.21943 18.1846 4.86465 18.1971C4.76532 18.2012 4.65157 18.1882 4.54491 18.1771C4.23209 18.1475 4.25276 18.1093 4.50018 18.0399C4.74762 17.9724 4.92389 17.886 5.12856 17.8072C5.35553 17.7932 5.63954 17.798 5.79516 17.7613C6.05692 17.7014 6.24014 17.615 6.45197 17.54C6.68607 17.5279 6.92736 17.5233 7.14711 17.5017C7.23928 17.4938 7.28127 17.4517 7.35898 17.4267C7.50023 17.3786 7.61997 17.3096 7.81129 17.2861C8.12312 17.2508 8.50667 17.263 8.68964 17.1576C8.7952 17.0962 8.95742 17.0309 9.15613 17.0265C9.70974 17.0172 9.94242 16.9116 10.2249 16.8115C10.4367 16.7365 10.8916 16.7733 11.1248 16.6982C11.2802 16.6501 11.393 16.5906 11.5484 16.5443C11.612 16.5251 11.7467 16.5152 11.8531 16.5091C12.4348 16.4788 13.0237 16.456 13.6053 16.4237C13.6975 16.4177 13.7824 16.3889 13.853 16.3658C14.0013 16.3157 14.0925 16.2468 14.2765 16.2138C14.4606 16.1808 14.7233 16.1801 14.9503 16.1698C15.681 16.139 15.738 16.1465 16.0692 15.9834C16.3369 15.8509 16.9987 15.9424 17.2165 15.7968C17.343 15.7125 17.5761 15.6432 17.9948 15.6324C18.5838 15.6172 19.1654 15.5792 19.7542 15.5527C20.2792 15.5282 20.2721 15.5282 20.8374 15.3491C21.0917 15.2683 21.4682 15.2786 21.8016 15.2623C22.1563 15.246 22.4825 15.2221 22.6514 15.1263C22.8204 15.0323 23.1322 15.0008 23.4941 14.9864C23.8275 14.972 24.204 14.9805 24.4655 14.9034C25.1016 14.7184 25.0945 14.7165 25.5414 14.6961C26.2438 14.6634 26.9461 14.6308 27.6484 14.5963C28.1166 14.5739 28.6064 14.5686 29.0459 14.5253C29.3649 14.4938 29.5052 14.3866 29.7099 14.3116C30.2916 14.2812 30.8733 14.2509 31.455 14.2224C32.2708 14.1818 33.0937 14.145 33.9166 14.1063C34.2705 14.0327 34.3179 13.8724 34.9141 13.863C35.2689 13.8581 35.6164 13.8323 35.9711 13.8159C36.5599 13.7874 37.1415 13.7514 37.7305 13.7362C38.1776 13.7254 38.254 13.6221 38.4873 13.5566C38.565 13.5335 38.6356 13.5008 38.7278 13.4948C39.6499 13.4387 40.6009 13.4243 41.5013 13.3434C41.5934 13.3355 41.678 13.2952 41.6989 13.2665C41.7129 13.2512 41.5917 13.223 41.5135 13.2099C41.4209 13.1949 41.3001 13.18 41.2007 13.1841C38.2708 13.3207 35.3409 13.4593 32.411 13.5959C31.9995 13.6162 31.9995 13.6143 31.0018 13.8271C30.9168 13.8445 30.8176 13.8639 30.7112 13.8699C30.243 13.8942 29.7676 13.909 29.3066 13.939C28.9307 13.963 28.6181 13.9411 28.3473 13.8732C28.1549 13.8242 27.9558 13.8095 27.7145 13.8141C27.4448 13.8206 27.2677 13.8421 27.1123 13.8941C26.9076 13.9653 26.8024 14.0571 26.3697 14.0775C24.3761 14.1655 22.3826 14.2631 20.3962 14.3568C20.1189 14.3309 19.9834 14.2913 20.0537 14.2434C20.0958 14.2147 20.1805 14.1763 20.2656 14.1722C21.0814 14.1297 21.9043 14.0929 22.7201 14.0523C22.8336 14.0462 22.9898 14.0495 23.0534 14.0303C23.3645 13.9435 23.4761 13.804 24.0651 13.7927C24.4058 13.7859 24.7532 13.7563 25.0793 13.7286C25.1715 13.7207 25.2561 13.6804 25.277 13.6517C25.2838 13.6364 25.1698 13.6081 25.0844 13.595C24.7712 13.5407 24.4102 13.6085 24.0973 13.5713C23.9906 13.5583 23.8411 13.5397 23.8195 13.5169C23.805 13.4959 23.9251 13.4612 24.01 13.44C24.0878 13.4207 24.194 13.4032 24.3004 13.3972C25.2368 13.3505 26.1733 13.3019 27.1098 13.2647C27.493 13.2502 27.762 13.2017 27.931 13.1135C28.0578 13.0482 28.2134 13.0135 28.4547 13.0032C30.0935 12.9277 31.7321 12.8446 33.3781 12.7748C33.7896 12.7583 34.0017 12.6947 34.1708 12.6122C34.3047 12.5469 34.4605 12.5236 34.723 12.5113C37.0713 12.4051 39.4051 12.2874 41.7535 12.185C42.1862 12.1665 42.3128 12.0841 42.5318 12.0129C42.6095 11.9879 42.6586 11.9572 42.7578 11.9417C42.8569 11.9261 42.9847 11.9276 43.1054 11.9234C44.9783 11.8358 46.8512 11.7424 48.7313 11.6605C49.1712 11.642 49.2548 11.5463 49.4809 11.4789C49.5587 11.4577 49.6292 11.4232 49.7214 11.4172C51.126 11.3481 52.5306 11.2828 53.9353 11.2157C54.8717 11.1709 55.8081 11.1261 56.7446 11.0832C57.2057 11.0628 57.2057 11.0608 57.8277 10.8778C57.8983 10.8566 57.9974 10.8315 58.0896 10.8255C60.7854 10.6953 63.4741 10.5709 66.1699 10.4426C66.3969 10.4324 66.5595 10.388 66.6721 10.3228C66.7847 10.2576 66.9474 10.2133 67.1673 10.2031C69.2743 10.1014 71.3812 10.0016 73.4954 9.90558C73.8785 9.88917 74.1475 9.84258 74.3166 9.75625C74.4433 9.69102 74.599 9.65623 74.8402 9.64597C76.9472 9.54807 79.0543 9.44444 81.1684 9.35034C81.5728 9.33196 81.7705 9.26653 81.9681 9.18964C82.0387 9.16273 82.0949 9.11869 82.18 9.11462C83.2298 9.05805 84.2725 8.9996 85.3297 8.96018C85.7696 8.9436 85.9175 8.86304 86.0938 8.78622C86.2349 8.72477 86.3979 8.7033 86.6675 8.69486C87.2565 8.67592 87.8381 8.64176 88.4126 8.6076C88.4977 8.60163 88.6036 8.55935 88.6103 8.53262C88.6237 8.483 88.4599 8.44915 88.1898 8.4328C85.3805 8.56523 82.5642 8.69768 79.7548 8.83011C79.2937 8.85248 79.2937 8.85249 78.6718 9.03555C78.6011 9.05674 78.502 9.08184 78.4027 9.08786C75.7069 9.21614 73.0182 9.34249 70.3224 9.47076C70.0954 9.48098 69.9328 9.52534 69.8202 9.59052C69.7076 9.65571 69.5449 9.70006 69.325 9.71026C66.7498 9.83245 64.1747 9.95656 61.5923 10.073C61.2092 10.0895 60.9401 10.1341 60.7711 10.2224C60.6443 10.2876 60.4887 10.3224 60.2474 10.3327C57.7857 10.4469 55.3311 10.5668 52.8622 10.6772C52.6139 10.6875 52.4285 10.6327 52.442 10.5812C52.4486 10.5545 52.5543 10.5103 52.6394 10.5063C53.9234 10.4395 55.2004 10.3708 56.4917 10.3192C56.9245 10.3026 57.0509 10.2183 57.2699 10.1471C57.3405 10.1221 57.3968 10.0895 57.4889 10.0759C57.588 10.0603 57.7158 10.0618 57.8365 10.0577C60.8799 9.91308 63.9234 9.76659 66.974 9.62962C67.4138 9.60922 67.4975 9.5155 67.7236 9.44807C67.8014 9.42495 67.8719 9.39041 67.9641 9.38632C68.9005 9.33773 69.8369 9.29485 70.7734 9.25198C72.4122 9.17456 74.0509 9.09715 75.6967 9.01972C76.1721 8.99731 76.1721 8.9973 76.7799 8.81619C76.8505 8.79499 76.9496 8.76801 77.0418 8.76392C81.3764 8.55823 85.711 8.35254 90.0456 8.14876C90.2726 8.13854 90.4352 8.09419 90.5478 8.029C90.6604 7.96572 90.823 7.91946 91.0429 7.90735C96.9027 7.63032 102.755 7.35329 108.615 7.08007C108.998 7.06175 109.268 7.02089 109.437 6.93074C109.556 6.86553 109.719 6.83072 109.96 6.81855C116.402 6.51497 122.843 6.21139 129.292 5.90588C133.627 5.7021 137.961 5.49451 142.296 5.29454C142.693 5.27618 142.905 5.2164 143.103 5.13761C143.166 5.11072 143.229 5.06666 143.315 5.06259C144.244 5.01211 145.173 4.96545 146.102 4.91879C146.394 4.9694 146.686 5.01812 146.978 5.06874C147.197 4.9956 147.409 4.92058 147.628 4.84744C149.032 4.7879 150.415 4.69791 151.835 4.66693C151.927 4.66475 152.027 4.70069 152.127 4.71946C152.789 4.83762 153.165 4.82695 153.581 4.66549C153.729 4.60783 153.856 4.55595 154.083 4.54573C154.786 4.50928 155.495 4.48426 156.19 4.44211C156.566 4.42 156.879 4.43813 157.15 4.50597C157.342 4.55498 157.541 4.57537 157.775 4.56322C159.067 4.50211 160.351 4.44293 161.642 4.37801C161.734 4.37392 161.819 4.34123 161.889 4.31813C162.038 4.26809 162.165 4.21432 162.306 4.1624C162.498 4.19424 162.711 4.2184 162.868 4.25989C163.068 4.30887 163.252 4.30831 163.522 4.29414C168.672 4.04785 173.83 3.80727 178.98 3.55907C179.42 3.53867 179.613 3.6182 179.912 3.65926C180.011 3.67422 180.111 3.69298 180.217 3.69648C180.331 3.69995 180.452 3.68815 180.565 3.68209C184.431 3.49879 188.298 3.31739 192.164 3.13409C192.675 3.10967 192.675 3.10967 193.436 3.22562C193.529 3.2406 193.65 3.2574 193.749 3.25138C195.509 3.1717 197.268 3.08631 199.02 3.00474C199.247 2.99452 199.439 3.02445 199.646 3.06769C200.052 3.1523 200.08 3.15222 200.376 3.02545C200.517 2.9659 200.666 2.9292 200.9 2.91133C201.155 2.89149 201.361 2.89661 201.561 2.93034C201.845 2.97716 202.052 3.05663 202.485 3.03435C204.358 2.93906 206.238 2.85903 208.104 2.76186C208.529 2.7396 208.757 2.80375 209.042 2.85057C209.142 2.86744 209.234 2.89386 209.341 2.89926C209.448 2.90467 209.575 2.89092 209.689 2.88485C212.03 2.77481 214.378 2.66667 216.712 2.54902C217.152 2.52672 217.345 2.60813 217.643 2.64919C217.743 2.66415 217.857 2.69052 217.949 2.68643C219.354 2.62307 220.766 2.55586 222.17 2.48869C222.674 2.46429 222.674 2.4662 223.442 2.58023C223.535 2.5952 223.656 2.6101 223.755 2.60599C225.394 2.53048 227.04 2.45305 228.679 2.37564C229.182 2.35123 229.182 2.35124 230.639 2.44603C230.746 2.45333 230.86 2.46445 230.966 2.46031C232.839 2.37266 234.719 2.28688 236.592 2.19351C236.968 2.17521 237.28 2.18952 237.551 2.25737C237.744 2.30638 237.943 2.32677 238.177 2.31462C240.284 2.21482 242.398 2.11881 244.498 2.01331C244.902 1.99302 245.165 2.03417 245.45 2.08862C245.543 2.10742 245.635 2.13384 245.742 2.14115C245.849 2.14846 245.969 2.14046 246.083 2.1344C248.19 2.0346 250.304 1.9405 252.404 1.83309C252.829 1.81083 253.057 1.87499 253.342 1.92181C253.442 1.93867 253.549 1.97268 253.634 1.97052C254.457 1.93562 255.28 1.90454 256.096 1.8544C256.535 1.82638 256.728 1.91351 257.027 1.95457C257.127 1.96762 257.241 1.9959 257.333 1.99181C259.092 1.91213 260.852 1.82864 262.604 1.74325C262.852 1.73106 263.037 1.74766 263.237 1.79664C263.5 1.8626 263.806 1.88838 264.189 1.86625C265.005 1.81993 265.828 1.78694 266.651 1.74822C267.133 1.72579 267.133 1.7258 268.611 1.82052C268.718 1.82783 268.832 1.83892 268.938 1.83479C270.343 1.76952 271.754 1.70615 273.152 1.63519C273.528 1.61498 273.841 1.6312 274.111 1.69905C274.304 1.74805 274.496 1.76847 274.737 1.7563C276.028 1.69519 277.312 1.6341 278.603 1.57299C279.072 1.5506 279.54 1.51295 280.008 1.51154C280.349 1.51242 280.599 1.60321 280.905 1.64806C280.99 1.66115 281.132 1.64549 281.245 1.64133C282.884 1.56392 284.53 1.4922 286.162 1.40528C286.587 1.38301 286.815 1.44717 287.1 1.49399C287.2 1.51086 287.307 1.54487 287.392 1.5427C287.981 1.51995 288.562 1.48959 289.151 1.46302C289.854 1.43039 290.563 1.40536 291.258 1.36131C291.826 1.32527 292.041 1.49055 292.496 1.4949C292.844 1.49957 293.198 1.46609 293.546 1.44978C294.248 1.41715 294.95 1.38071 295.653 1.35189C295.901 1.34161 296.092 1.3105 296.169 1.24161C296.183 1.22822 296.062 1.19999 295.984 1.18306C295.037 0.991372 295.037 0.991363 294.086 1.03619C293.497 1.06466 292.915 1.09312 292.327 1.11778C292.227 1.12189 292.113 1.10698 292.014 1.09584C291.729 1.06427 291.757 1.02604 291.998 0.95666C292.238 0.887276 292.421 0.802813 292.626 0.724C292.918 0.772709 293.202 0.821421 293.494 0.87013C293.728 0.859889 293.962 0.847757 294.197 0.837516C295.367 0.784401 296.538 0.729377 297.708 0.680077C297.793 0.676006 297.9 0.713834 298 0.732606C298.285 0.787058 298.541 0.833953 298.953 0.811735C300.003 0.753262 301.06 0.710026 302.11 0.659183C302.571 0.636814 302.571 0.636816 303.382 0.752621C303.474 0.765693 303.595 0.780588 303.694 0.776475C304.752 0.729424 305.801 0.678586 306.859 0.629628C307.086 0.619408 307.306 0.643537 307.47 0.698353C307.534 0.721046 307.521 0.759224 307.795 1.07118C308.637 1.32231 309.212 1.29389 309.793 1.26925C310.042 1.25897 310.261 1.24876 310.424 1.21013C310.509 1.18889 310.615 1.15805 310.615 1.13326C310.614 1.11419 310.458 1.08414 310.358 1.08062C309.655 1.0446 308.989 1.12672 308.301 1.14596C307.981 1.15455 307.703 1.08863 307.645 0.980094C307.63 0.949622 307.608 0.917267 307.587 0.886817C307.565 0.856366 307.55 0.823989 307.529 0.793539C307.251 0.784837 307.089 0.819652 306.969 0.884859C306.87 0.938558 306.729 1.00001 306.538 1.0292C306.347 1.06029 306.084 1.05537 305.85 1.06561C305.623 1.07583 305.375 1.10137 305.162 1.08866C304.949 1.07405 304.777 1.01924 304.578 0.985514C304.485 0.968627 304.372 0.944186 304.279 0.948278C303.463 0.983159 302.655 1.01801 301.846 1.0624C301.42 1.08657 301.206 1.00712 300.936 0.95835C300.722 0.920848 300.509 0.931014 300.475 1.01885C300.386 1.22891 300.714 1.31565 301.437 1.27342C302.033 1.2373 302.573 1.22997 303.043 1.35824C303.107 1.37522 303.256 1.38239 303.349 1.3783C303.93 1.35366 304.505 1.32332 305.087 1.29868C305.193 1.29454 305.307 1.30182 305.407 1.30915C306.856 1.40777 306.856 1.40969 307.346 1.38533C307.58 1.37318 307.807 1.36296 307.781 1.07314C308.224 0.760924 308.933 0.73781 309.621 0.689964C310.068 0.66001 310.261 0.743351 310.553 0.786339C310.652 0.801297 310.759 0.831484 310.851 0.827392C312.377 0.759859 313.895 0.688523 315.413 0.613383C315.668 0.60117 315.853 0.612059 316.053 0.661046C316.309 0.723212 316.594 0.762415 316.998 0.73831C317.807 0.690101 318.63 0.65902 319.453 0.618397C319.871 0.598063 319.871 0.598044 320.718 0.713742C320.81 0.726814 320.931 0.741709 321.03 0.737595C321.853 0.702693 322.669 0.660196 323.485 0.623408C323.712 0.613188 323.918 0.639265 324.097 0.690224C324.275 0.741182 324.488 0.767238 324.708 0.757039C325.531 0.72023 326.347 0.67964 327.163 0.642852C327.262 0.638739 327.383 0.651724 327.476 0.664796C328.344 0.780431 328.344 0.780411 328.741 0.760142C329.322 0.729781 329.919 0.71465 330.493 0.674775C331.053 0.634943 331.346 0.744671 331.73 0.804545C332.78 0.757516 333.837 0.718104 334.88 0.66156C335.306 0.637391 335.534 0.699637 335.819 0.748368C335.918 0.765233 336.018 0.801173 336.11 0.798988C336.465 0.79029 336.813 0.768267 337.161 0.751962C337.508 0.735657 337.863 0.719332 338.211 0.703027C338.609 0.757137 338.874 0.88603 339.441 0.840455C339.781 0.812729 340.143 0.805917 340.491 0.789612C340.838 0.773307 341.193 0.756982 341.541 0.740677C341.775 0.730436 342.016 0.723979 342.243 0.70613C342.661 0.676262 342.869 0.769103 343.168 0.810162C343.267 0.823213 343.381 0.845741 343.473 0.841649C344.176 0.812832 344.885 0.78781 345.573 0.741871C346.105 0.705939 346.468 0.76207 346.845 0.841037C346.924 0.857966 347.059 0.867095 347.158 0.862981C347.981 0.828079 348.797 0.785559 349.613 0.748771C349.833 0.738572 350.046 0.768444 350.224 0.817495C350.41 0.868432 350.616 0.892624 350.843 0.882404C351.659 0.845616 352.482 0.804981 353.298 0.768193C353.397 0.764079 353.518 0.778976 353.61 0.793955C354.407 0.909803 354.407 0.911712 354.876 0.887415C354.989 0.881352 355.11 0.877159 355.223 0.871095C355.805 0.842642 356.408 0.831302 356.975 0.783819C357.628 0.730359 358.104 0.793772 358.567 0.90109C359.149 0.87645 359.745 0.861301 360.313 0.821448C360.738 0.791558 360.966 0.863341 361.251 0.910164C361.351 0.927029 361.458 0.961037 361.543 0.956967C362.366 0.922065 363.189 0.890987 363.997 0.840871C364.437 0.812845 364.63 0.898073 364.929 0.941039C365.029 0.955997 365.135 0.982391 365.228 0.978298C365.696 0.96163 366.164 0.937321 366.633 0.914931C367.179 0.888492 367.179 0.890397 367.905 1.00455C368.246 1.05883 368.586 1.01394 368.92 0.999585C369.274 0.983259 369.608 0.970815 369.893 1.04815C370.071 1.0972 370.285 1.12708 370.505 1.11879C370.973 1.10021 371.448 1.08162 371.909 1.05162C372.278 1.02763 372.598 1.04191 372.869 1.11167C373.061 1.16067 373.26 1.18488 373.494 1.17273C374.544 1.1238 375.601 1.07292 376.651 1.02589C376.744 1.02179 376.872 1.03858 376.957 1.05549C377.156 1.08922 377.349 1.12677 377.541 1.16434C378.002 1.14579 378.477 1.13674 378.931 1.10868C379.414 1.08052 379.854 1.06966 380.232 1.17342C380.31 1.19607 380.424 1.22813 380.516 1.22594C380.871 1.21725 381.219 1.19713 381.566 1.18083C381.914 1.16452 382.269 1.1482 382.616 1.13189C383.022 1.17835 383.279 1.3149 383.847 1.26932C384.187 1.24159 384.549 1.23478 384.897 1.21848C385.244 1.20217 385.599 1.18394 385.947 1.16954C386.06 1.16539 386.188 1.15546 386.287 1.16279C386.394 1.1701 386.486 1.19652 386.579 1.21532C386.864 1.26977 387.127 1.32429 387.532 1.29065C387.872 1.26293 388.234 1.25611 388.581 1.2379C389.057 1.21549 389.057 1.21549 389.847 1.33327C390.167 1.38189 390.528 1.31596 390.834 1.357C391.04 1.38499 391.218 1.43212 391.418 1.46394C391.503 1.47704 391.638 1.48234 391.737 1.47823C392.205 1.45965 392.681 1.44107 393.142 1.41107C393.518 1.38705 393.831 1.40899 394.094 1.47686C394.287 1.52587 394.479 1.54628 394.72 1.53411C395.89 1.47718 397.061 1.42787 398.224 1.36524C398.622 1.34306 398.941 1.37453 399.163 1.44252C399.541 1.55963 400.071 1.41881 400.463 1.51299C400.705 1.57139 400.948 1.63932 401.387 1.60939C402.196 1.55736 403.019 1.52817 403.835 1.49138C404.127 1.542 404.418 1.59262 404.717 1.64322C405.186 1.62083 405.654 1.59843 406.122 1.57794C406.47 1.56164 406.824 1.54341 407.172 1.52901C407.285 1.52485 407.406 1.51686 407.513 1.52607C407.619 1.53529 407.705 1.55983 407.805 1.5786C408.296 1.67058 408.296 1.67249 409.105 1.63191C409.452 1.6137 409.786 1.60125 410.078 1.67666C410.349 1.74641 410.668 1.75879 411.037 1.7367C411.732 1.69646 412.435 1.66574 413.144 1.6369C413.364 1.6267 413.57 1.65851 413.756 1.70754C414.034 1.7849 414.375 1.77624 414.722 1.75422C415.183 1.72613 415.637 1.69806 416.029 1.80369C416.107 1.82634 416.229 1.85838 416.314 1.85621C416.896 1.8392 417.485 1.82599 418.052 1.78805C418.62 1.7501 418.898 1.86751 419.29 1.92354C419.871 1.897 420.46 1.87043 421.042 1.84388C421.155 1.83782 421.29 1.82026 421.389 1.82949C421.809 1.86828 422.052 2.01059 422.627 1.96499C422.96 1.93919 423.322 1.93048 423.67 1.92371C423.762 1.92153 423.883 1.95357 423.948 1.97817C423.983 1.99141 423.948 2.02775 423.906 2.04695C423.779 2.10074 423.624 2.15081 423.511 2.20646C423.497 2.21413 423.632 2.24804 423.711 2.26306C423.903 2.29681 424.123 2.29044 424.378 2.27441C424.598 2.2604 424.825 2.28642 424.983 2.34316C425.047 2.36585 425.026 2.40406 424.893 2.53034C424.894 2.62379 425.043 2.58137 425.092 2.52019C425.168 2.43223 425.019 2.40407 424.736 2.45261C424.537 2.48753 424.439 2.53742 424.489 2.57732C424.518 2.59822 424.653 2.62451 424.893 2.53034C425.516 2.41402 425.984 2.39164 426.453 2.36925C426.573 2.36317 426.715 2.34366 426.8 2.35484C427.106 2.3997 427.391 2.45416 427.69 2.50475C428.03 2.49228 428.349 2.4627 428.684 2.53607C429.154 2.63956 429.176 2.62996 429.63 2.60761C429.864 2.59546 430.098 2.58524 430.332 2.575C430.566 2.56476 430.751 2.5928 430.958 2.63604C431.378 2.72442 431.413 2.7243 431.688 2.60141C431.85 2.52654 431.964 2.50141 432.17 2.53512C432.853 2.6494 432.86 2.657 433.442 2.62092C433.924 2.59086 434.379 2.58186 434.735 2.6895C434.978 2.76506 435.056 2.74767 435.246 2.66699C435.754 2.45375 435.988 2.45686 436.949 2.60654C437.397 2.67767 437.858 2.59809 438.312 2.58719C438.695 2.5784 438.965 2.62335 438.996 2.74342C439.018 2.81773 439.083 2.87095 439.339 2.89497C439.438 2.90421 439.559 2.91719 439.658 2.91308C440.247 2.88842 440.829 2.85996 441.418 2.83148C441.716 2.81724 441.878 2.72712 441.819 2.60905C441.753 2.48337 441.866 2.43724 442.292 2.39972C442.547 2.37798 442.753 2.38119 442.959 2.4149C443.187 2.45235 443.124 2.48687 442.926 2.55613C442.453 2.72539 442.511 2.82819 443.123 2.94269C443.337 2.98209 443.508 3.01783 443.558 3.0768C443.587 3.10723 443.56 3.14737 443.624 3.17006C443.974 3.29679 444.458 3.37735 444.998 3.43676C445.516 3.3837 445.872 3.46844 446.27 3.5359C446.584 3.58836 446.952 3.54149 447.285 3.52141C447.661 3.4993 447.974 3.51361 448.245 3.58336C448.437 3.63237 448.636 3.65465 448.87 3.64441C449.339 3.62202 449.814 3.60724 450.275 3.57534C450.672 3.54744 450.971 3.58469 451.22 3.64878C451.534 3.72985 451.881 3.67348 452.208 3.68394C452.648 3.69597 452.871 3.86503 453.445 3.81753C453.785 3.7898 454.14 3.7792 454.495 3.77051C454.587 3.76832 454.701 3.80041 454.78 3.82306C455.158 3.92682 455.598 3.91977 456.08 3.8878C456.413 3.86581 456.74 3.84577 457.067 3.91726C457.609 4.03769 458.207 4.1427 458.776 4.25351C458.856 4.341 458.8 4.44414 459.206 4.49442C459.419 4.52047 459.619 4.55994 459.783 4.60331C459.982 4.65421 460.167 4.667 460.422 4.65288C460.883 4.62479 461.366 4.6176 461.82 4.5819C462.238 4.55013 462.502 4.61229 462.758 4.67064C462.965 4.7177 463.157 4.74 463.405 4.70492C463.66 4.67173 463.845 4.69215 464.051 4.74302C464.344 4.81271 464.365 4.80503 465.331 4.8231C465.43 4.8247 465.551 4.85293 465.608 4.87755C465.637 4.89082 465.574 4.92918 465.524 4.9484C465.461 4.97148 465.362 4.99846 465.269 5.00446C464.219 5.05721 463.162 5.10426 462.113 5.15701C462.006 5.16305 461.893 5.17676 461.815 5.19606C461.73 5.2173 461.624 5.24621 461.624 5.27291C461.625 5.29198 461.767 5.31445 461.867 5.3275C462.18 5.37042 462.548 5.30256 462.854 5.35123C463.06 5.38303 463.231 5.42828 463.438 5.45817C463.523 5.47127 463.658 5.46896 463.764 5.46482C464.119 5.4504 464.467 5.43029 464.821 5.41778C464.921 5.41557 465.035 5.43431 465.127 5.44929C465.81 5.56166 465.81 5.56166 466.399 5.53509C466.633 5.52485 466.881 5.49549 467.102 5.50627C467.315 5.51707 467.5 5.56801 467.692 5.59985C468.091 5.66731 468.468 5.73293 468.499 5.8816C468.514 5.93877 468.749 5.98764 468.983 5.99075C469.21 5.99388 469.451 5.9722 469.686 5.96005C470.239 5.93549 470.239 5.93549 470.958 6.04967C471.157 6.08149 471.37 6.08466 471.625 6.06482C471.725 6.05689 471.845 6.06416 471.952 6.07338C472.3 6.10094 472.301 6.13716 472.075 6.2065C471.757 6.30854 471.785 6.318 472.681 6.40113C473.022 6.43252 473.286 6.49276 473.571 6.54531C474.033 6.62974 474.026 6.62975 473.723 6.74319C473.652 6.76819 473.589 6.79509 473.518 6.82201C473.314 6.89701 473.151 6.97759 472.726 6.98651C472.257 6.99555 471.789 7.02748 471.321 7.04987C470.867 7.07222 470.747 7.11834 470.791 7.24789C470.843 7.40413 470.936 7.42102 471.752 7.41666C471.987 7.41595 472.193 7.43058 472.371 7.48154C472.287 7.54283 472.131 7.59098 471.904 7.6031C471.323 7.63346 470.734 7.66004 470.152 7.68658C469.684 7.70897 469.216 7.73136 468.747 7.75375C468.457 7.76797 468.274 7.86771 468.353 7.97809C468.397 8.0409 468.433 8.10372 468.47 8.16655C468.55 8.29219 468.699 8.32417 469.175 8.31702C469.296 8.31475 469.409 8.29913 469.522 8.30261C469.984 8.31457 470.207 8.47219 470.76 8.4381C471.221 8.41001 471.704 8.40284 472.158 8.36714C472.576 8.33537 472.811 8.40334 473.103 8.45395C473.203 8.47082 473.31 8.50671 473.395 8.50455C473.984 8.4818 474.573 8.45906 475.147 8.42109C475.417 8.40502 475.58 8.41597 475.794 8.4611C476.307 8.57017 476.321 8.56441 477.08 8.52779C477.633 8.49942 477.64 8.50321 478.352 8.61741C478.551 8.64923 478.764 8.64859 479.019 8.63256C479.353 8.61248 479.7 8.58092 480.048 8.60848C480.155 8.61579 480.29 8.63828 480.326 8.66296C480.348 8.68006 480.249 8.72232 480.164 8.73593C479.541 8.83698 478.809 8.82202 478.128 8.86413C477.916 8.87621 477.702 8.84061 477.524 8.78965C477.338 8.73872 477.139 8.71834 476.898 8.72861C476.43 8.751 475.955 8.76577 475.494 8.79768C475.096 8.82558 474.819 8.78254 474.541 8.72425C474.449 8.70546 474.342 8.66954 474.249 8.67172C473.199 8.71303 472.142 8.75437 471.099 8.81091C470.681 8.83506 470.439 8.77477 470.154 8.72413C470.054 8.70726 469.954 8.67132 469.862 8.67351C469.507 8.68221 469.16 8.70423 468.805 8.72055C467.514 8.78166 466.23 8.84275 464.938 8.90004C464.853 8.90411 464.746 8.86438 464.647 8.84751C464.454 8.81376 464.255 8.78193 464.056 8.75011C463.701 8.76644 463.353 8.78655 462.999 8.79907C462.743 8.80746 462.517 8.83486 462.482 8.90744C462.462 8.95518 462.697 8.99833 462.945 8.99377C463.186 8.98923 463.427 8.96561 463.626 8.98981C464.615 9.10889 464.615 9.1108 465.232 9.08415C465.772 9.05964 465.714 9.04073 466.192 9.14419C466.398 9.18934 466.583 9.2155 466.817 9.20335C467.399 9.1749 467.988 9.14642 468.577 9.12176C468.669 9.11766 468.79 9.13638 468.882 9.15136C469.58 9.26369 469.58 9.2675 470.155 9.23716C470.906 9.20057 470.935 9.19095 471.441 9.30576C471.79 9.38482 472.108 9.32854 472.442 9.32372C472.826 9.39695 473.246 9.46245 473.595 9.54531C474.009 9.64324 474.441 9.62476 474.909 9.59474C475.257 9.57271 475.598 9.56406 475.883 9.6414C476.154 9.71306 476.48 9.71971 476.849 9.69953C477.182 9.68136 477.523 9.64409 477.871 9.685C477.964 9.69616 478.106 9.72435 478.099 9.74154C478.093 9.76826 478.001 9.80669 477.909 9.81841C477.257 9.89857 476.54 9.89881 475.852 9.93712C475.76 9.94312 475.639 9.9225 475.546 9.90752C475.347 9.87379 475.154 9.83433 474.962 9.79867C474.615 9.81116 474.26 9.81603 473.919 9.83994C473.657 9.8579 473.458 9.85661 473.266 9.81141C473.087 9.76999 472.895 9.71907 472.682 9.70636C472.469 9.69365 472.221 9.72301 471.987 9.73516C471.753 9.7473 471.483 9.74238 471.299 9.77345C471.115 9.80452 471.002 9.87162 470.882 9.92539C470.748 9.98492 470.564 10.0046 470.294 10.0111C470.046 10.0176 469.847 10.0105 469.661 9.95768C469.583 9.93503 469.476 9.91818 469.369 9.90324C469.27 9.89019 469.156 9.86955 469.064 9.87364C468.007 9.92069 466.957 9.97155 465.9 10.0205C465.375 10.045 465.382 10.0449 464.287 9.93571C464.187 9.92647 464.066 9.91349 463.967 9.9176C463.378 9.94226 462.797 9.97072 462.208 9.9992C461.612 10.0277 461.619 10.0239 460.602 9.90676C460.417 9.88443 460.148 9.91576 459.928 9.91261C459.466 9.90447 459.236 9.74496 458.697 9.77709C458.236 9.80518 457.754 9.81236 457.293 9.84807C456.874 9.87985 456.632 9.81383 456.347 9.7632C456.248 9.74633 456.14 9.70851 456.055 9.71258C454.998 9.75772 453.948 9.80856 452.543 9.81852C452.195 9.81957 452.352 9.85915 452.579 9.87182C452.906 9.89181 453.012 9.85144 452.833 9.77569C452.705 9.72268 452.52 9.69651 452.371 9.71031C452.293 9.71818 452.194 9.75472 452.543 9.81852C452.913 9.88988 452.892 9.92999 452.957 9.95268C453.114 10.0075 453.334 10.0297 453.561 10.0214C453.916 10.007 454.263 9.98689 454.618 9.97438C454.718 9.97026 454.838 9.98325 454.931 9.99823C455.714 10.1141 455.721 10.1217 456.551 10.0735C456.813 10.0593 457.005 10.0587 457.211 10.0944C457.496 10.1431 457.703 10.2264 458.136 10.1984C458.71 10.1604 459.299 10.1377 459.888 10.1149C459.98 10.1108 460.08 10.1448 460.187 10.1598C460.479 10.2047 460.693 10.2899 461.125 10.2523C461.459 10.2227 461.821 10.214 462.175 10.2072C462.268 10.205 462.41 10.2351 462.453 10.2597C462.539 10.3034 462.433 10.3552 462.192 10.3921C462.093 10.4077 461.958 10.4043 461.845 10.4104C461.377 10.4327 460.908 10.457 460.44 10.4756C460.192 10.4859 459.958 10.5152 459.931 10.5859C459.91 10.6336 460.166 10.6748 460.408 10.6702C460.763 10.6635 461.117 10.6471 461.458 10.6213C462.06 10.5775 462.586 10.5874 463.078 10.7061C463.427 10.7889 463.405 10.7585 463.778 11.0053C463.871 11.068 464.148 11.0729 464.389 11.0683C464.971 11.057 465.242 11.0848 465.193 11.1441C465.13 11.2168 464.924 11.2402 464.662 11.2506C464.194 11.2672 463.725 11.2935 463.257 11.3159C463.144 11.3219 463.016 11.3337 462.91 11.3302C462.803 11.3267 462.703 11.3042 462.611 11.2873C462.412 11.2516 462.24 11.1968 462.027 11.1841C461.814 11.1714 461.566 11.2008 461.332 11.2129C461.098 11.2232 460.85 11.2525 460.636 11.2398C460.423 11.2271 460.245 11.1704 460.053 11.1367C459.96 11.1198 459.846 11.0934 459.754 11.0956C459.286 11.1123 458.818 11.1385 458.349 11.159C457.775 11.1855 457.775 11.1855 457.077 11.0694C456.878 11.0356 456.672 11.0382 456.41 11.0542C455.842 11.0864 455.835 11.0807 454.797 10.9732C454.697 10.9621 454.576 10.9491 454.477 10.9551C453.42 11.0022 452.37 11.053 451.32 11.102C450.419 11.1447 450.419 11.1447 449.925 11.3369C449.558 11.4792 449.551 11.4792 449.914 11.5429C450.206 11.5955 450.47 11.6729 450.79 11.7005C451.088 11.7263 451.456 11.6394 451.784 11.7261C451.948 11.7695 452.161 11.8165 452.367 11.8236C452.694 11.8321 453.041 11.7757 453.355 11.8587C453.512 11.9002 453.747 11.9434 453.945 11.9447C454.293 11.9475 454.648 11.9159 454.996 11.9015C455.102 11.8973 455.223 11.897 455.322 11.9062C455.429 11.9173 455.521 11.9399 455.614 11.9587C455.899 12.0227 456.205 12.0523 456.573 12.0188C457.176 11.9635 457.716 11.9886 458.186 12.1093C458.25 12.1262 458.407 12.1277 458.506 12.1198C458.761 12.0999 458.981 12.0973 459.173 12.133C459.252 12.148 459.366 12.1744 459.352 12.1916C459.331 12.2202 459.246 12.2587 459.154 12.2685C458.488 12.3353 457.771 12.3451 457.083 12.3815C456.991 12.3856 456.877 12.3611 456.784 12.3443C456.585 12.3105 456.414 12.2538 456.2 12.2411C455.987 12.2284 455.739 12.254 455.505 12.2642C455.271 12.2744 455.023 12.3038 454.81 12.293C454.597 12.2803 454.397 12.2332 454.226 12.1918C454.027 12.1447 453.835 12.1396 453.572 12.1594C453.232 12.1852 452.877 12.1901 452.53 12.2045C452.337 12.1689 452.145 12.1294 451.946 12.0956C451.853 12.0788 451.739 12.0581 451.64 12.0603C451.172 12.077 450.703 12.1013 450.235 12.1237C449.767 12.1461 449.767 12.1461 448.97 12.0302C448.878 12.0172 448.757 12.0023 448.657 12.0064C448.068 12.031 447.487 12.0614 446.898 12.086C446.671 12.0963 446.465 12.0702 446.279 12.0193C446.101 11.9683 445.888 11.9403 445.668 11.9505C444.731 11.9934 443.795 12.0344 442.858 12.0849C442.482 12.1051 442.163 12.0889 441.906 12.021C441.607 11.9437 441.273 11.9638 440.926 11.9801C440.138 12.0206 440.131 12.0187 439.626 11.923C439.526 11.9042 439.426 11.8682 439.334 11.8704C438.518 11.9015 437.695 11.9307 436.886 11.9789C436.461 12.005 436.232 11.9389 435.948 11.8902C435.848 11.8733 435.741 11.8374 435.656 11.8415C435.067 11.8642 434.478 11.8851 433.904 11.9249C433.329 11.9648 433.106 11.7881 432.673 11.7913C432.084 11.795 431.503 11.8406 430.921 11.8691C430.453 11.8915 429.985 11.9139 429.516 11.9362C429.048 11.9586 428.58 11.9772 428.112 12.0034C427.863 12.0175 427.679 12.0009 427.472 11.9538C427.208 11.8917 426.895 11.8431 426.611 11.7867C426.176 11.706 426.176 11.706 425.651 11.7305C425.538 11.7365 425.417 11.7407 425.304 11.7468C424.445 11.7913 424.445 11.7875 423.35 11.6706C423.3 11.6651 423.173 11.6864 423.123 11.7019C422.975 11.7519 422.841 11.8057 422.707 11.8576C422.515 11.8276 422.28 11.8112 422.152 11.7677C421.788 11.6448 421.223 11.8163 420.852 11.6953C420.716 11.65 420.481 11.6106 420.268 11.5998C420.048 11.589 419.8 11.6165 419.573 11.6286C418.984 11.659 418.984 11.6571 418.482 11.8284C418.228 11.913 417.859 11.8989 417.525 11.919C417.178 11.941 416.844 11.9534 416.552 11.8761C416.288 11.8063 415.969 11.7902 415.593 11.8142C415.132 11.8442 414.656 11.8628 414.188 11.8813C414.089 11.8854 413.968 11.8763 413.868 11.8651C412.78 11.7559 412.78 11.754 412.255 11.7804C412.021 11.7925 411.78 11.797 411.553 11.8149C411.17 11.8466 410.879 11.8074 410.601 11.7472C410.508 11.7284 410.401 11.6925 410.309 11.6947C409.841 11.7056 409.379 11.7242 408.918 11.7427C408.563 11.7572 408.209 11.7658 407.868 11.7936C407.301 11.8392 407.022 11.716 406.631 11.66C406.049 11.6865 405.46 11.7055 404.879 11.7415C404.609 11.7576 404.432 11.7524 404.225 11.7073C403.962 11.6509 403.719 11.5867 403.294 11.6166C402.726 11.6565 402.13 11.6716 401.548 11.6963C401.157 11.6383 400.871 11.519 400.311 11.5646C399.971 11.5923 399.609 11.5991 399.261 11.6154C398.793 11.6378 398.325 11.6583 397.857 11.6826C397.353 11.707 397.36 11.7013 396.584 11.5911C396.136 11.5257 395.676 11.6014 395.222 11.6142C394.867 11.6248 394.691 11.7131 394.778 11.8254C394.864 11.9376 394.674 12.0259 394.348 12.0422C393.532 12.0809 392.709 12.1215 391.893 12.1564C391.794 12.1605 391.673 12.1475 391.58 12.1344C390.705 12.0169 390.705 12.0188 390.315 12.0372C389.734 12.0675 389.138 12.0846 388.563 12.1225C388.166 12.1485 387.874 12.1094 387.618 12.0453C387.418 11.9963 387.233 11.9854 386.978 11.9976C384.169 12.1339 381.359 12.2606 378.557 12.4006C378.139 12.421 377.897 12.3664 377.612 12.3158C377.512 12.2989 377.419 12.2629 377.32 12.2632C377.086 12.2639 376.852 12.2818 376.617 12.294C375.567 12.3429 374.518 12.4014 373.46 12.4389C373.013 12.4555 372.894 12.5436 372.703 12.6166C372.555 12.6724 372.385 12.6958 372.123 12.7042C371.867 12.7126 371.683 12.7036 371.483 12.6546C371.226 12.5905 370.935 12.5514 370.538 12.5793C370.077 12.6112 369.608 12.6259 369.133 12.6484C368.892 12.6586 368.708 12.6935 368.631 12.7624C368.617 12.7739 368.766 12.802 368.852 12.8189C369.137 12.8753 369.407 12.9412 369.727 12.9803C370.055 13.0194 370.409 12.9725 370.749 12.9601C370.87 12.9559 370.983 12.9441 371.097 12.9457C371.203 12.9473 371.332 12.9564 371.41 12.9734C371.78 13.0581 372.172 13.116 372.682 13.063C373.122 13.0864 373.352 13.244 373.912 13.2004C374.253 13.1746 374.607 13.1621 374.962 13.1515C375.055 13.1493 375.154 13.1833 375.254 13.2002C375.539 13.247 375.767 13.3226 376.193 13.2889C376.646 13.2532 377.129 13.246 377.59 13.2179C377.845 13.2019 378.03 13.2147 378.23 13.2637C378.486 13.3259 378.778 13.3726 379.175 13.3409C379.515 13.3132 379.877 13.3064 380.225 13.2882C380.679 13.2658 380.679 13.2677 381.49 13.3835C381.583 13.3966 381.703 13.4115 381.803 13.4074C382.392 13.3827 382.973 13.3524 383.562 13.3277C383.789 13.3175 384.01 13.3416 384.167 13.3965C384.231 13.4192 384.21 13.4574 384.232 13.4897C383.061 13.5448 381.891 13.5921 380.728 13.6586C380.288 13.6847 380.088 13.6071 379.796 13.5641C379.696 13.5492 379.589 13.5171 379.497 13.5212C378.674 13.5561 377.858 13.5928 377.043 13.6373C376.787 13.6514 376.596 13.6443 376.403 13.5896C375.911 13.4442 375.316 13.5261 374.762 13.5488C374.337 13.5653 374.203 13.6248 374.254 13.7506C374.321 13.8991 374.577 13.9441 375.229 13.9155C375.464 13.9052 375.698 13.8912 375.932 13.8828C376.159 13.8745 376.365 13.8987 376.551 13.9496C376.729 14.0006 376.942 14.0266 377.162 14.0183C377.63 13.9998 378.106 13.9812 378.56 13.9512C378.935 13.9272 379.248 13.9453 379.512 14.0151C379.804 14.0924 380.145 14.0742 380.485 14.056C381.28 14.0155 381.287 14.0174 381.785 14.1112C381.885 14.13 381.985 14.1659 382.077 14.1638C382.893 14.1327 383.716 14.1054 384.518 14.0572C384.936 14.0331 385.178 14.0934 385.456 14.1421C385.556 14.159 385.656 14.1968 385.748 14.1928C386.337 14.17 386.926 14.1472 387.5 14.1093C387.77 14.0913 387.933 14.1022 388.154 14.1473C388.681 14.2583 388.695 14.2544 389.44 14.2159C389.667 14.2038 389.915 14.1821 390.128 14.1967C390.341 14.2113 390.513 14.2661 390.712 14.2999C390.804 14.3148 390.918 14.3355 391.018 14.3314C391.486 14.3147 391.954 14.2904 392.422 14.268C392.862 14.2457 392.862 14.2476 393.687 14.3634C394.022 14.412 394.369 14.3689 394.703 14.3527C395.064 14.3344 395.391 14.3335 395.669 14.407C395.947 14.4805 396.281 14.4757 396.635 14.4594C396.969 14.4431 397.309 14.4002 397.65 14.4506C398.433 14.5665 398.433 14.5684 398.915 14.5441C399.618 14.5095 400.313 14.4769 401.022 14.4462C401.115 14.4421 401.236 14.4646 401.328 14.4796C401.527 14.5133 401.699 14.57 401.912 14.5827C402.125 14.5973 402.373 14.5737 402.6 14.5616C403.331 14.5231 403.38 14.5096 403.872 14.634C404.285 14.7358 404.794 14.5855 405.18 14.7026C405.401 14.7687 405.699 14.8212 406.111 14.7875C406.451 14.7598 406.806 14.7511 407.161 14.7347C407.721 14.7083 407.721 14.7102 408.433 14.8225C408.525 14.8375 408.646 14.8561 408.738 14.8521C409.207 14.8354 409.682 14.8206 410.136 14.7849C410.668 14.7433 411.01 14.8147 411.408 14.8841C411.721 14.9384 412.09 14.8916 412.423 14.8715C412.785 14.8513 413.112 14.856 413.383 14.9296C413.668 15.005 414.001 14.9945 414.356 14.9782C414.689 14.9638 415.03 14.9189 415.371 14.9713C416.104 15.0873 416.104 15.0873 416.636 15.0628C417.104 15.0405 417.573 15.0162 418.041 14.9995C418.133 14.9954 418.247 15.0199 418.34 15.0367C418.539 15.0705 418.71 15.1272 418.923 15.1399C419.137 15.1526 419.385 15.1271 419.619 15.1168C419.853 15.1066 420.101 15.0772 420.314 15.088C420.527 15.0988 420.727 15.1459 420.898 15.1874C421.097 15.2363 421.282 15.2415 421.551 15.2216C421.892 15.1958 422.247 15.189 422.594 15.1746C422.786 15.2103 422.986 15.2459 423.171 15.2854C423.363 15.3268 423.569 15.3223 423.832 15.3082C424.704 15.2598 424.711 15.2655 425.444 15.3815C425.779 15.4339 426.126 15.389 426.459 15.3747C426.814 15.3583 427.148 15.3497 427.426 15.4252C427.696 15.4968 428.03 15.5053 428.385 15.4814C428.612 15.4654 428.853 15.4552 429.087 15.4488C429.194 15.4465 429.322 15.4538 429.4 15.4688C429.777 15.5478 430.148 15.6191 430.665 15.5661C431.12 15.58 431.349 15.7357 431.895 15.7035C432.356 15.6754 432.839 15.6682 433.293 15.6325C433.711 15.6008 434.01 15.6533 434.224 15.7194C434.609 15.8365 435.147 15.6746 435.532 15.7898C435.753 15.8559 436.037 15.9085 436.463 15.8786C436.931 15.8466 437.081 15.8862 437.217 16.006C437.297 16.0744 437.283 16.1298 437.142 16.1836C437.001 16.2393 436.845 16.2303 436.617 16.168C436.353 16.0982 436.04 16.0858 435.664 16.1022C435.295 16.1186 435.067 16.0201 434.761 15.9829C434.455 15.9437 434.094 16.0116 433.774 15.9611C433.019 15.8432 433.019 15.8432 432.509 15.8676C432.161 15.8839 431.799 15.8926 431.459 15.9203C431.054 15.954 430.791 15.8956 430.513 15.8431C430.414 15.8243 430.313 15.7884 430.228 15.7905C429.412 15.8216 428.589 15.8508 427.781 15.9009C427.355 15.927 427.127 15.859 426.842 15.8122C426.743 15.7953 426.636 15.7613 426.551 15.7654C425.848 15.7942 425.153 15.8306 424.451 15.8652C424.317 15.9171 424.168 15.9671 424.041 16.0228C423.907 16.0804 423.723 16.1058 423.453 16.1047C423.006 16.106 422.567 16.1874 422.118 16.0877C421.655 15.9861 421.62 15.9919 421.173 16.0181C420.606 16.0522 420.002 16.0464 419.471 16.1224C419.379 16.136 419.28 16.1725 419.28 16.1992C419.273 16.2164 419.423 16.2408 419.516 16.2557C419.829 16.3006 420.19 16.2327 420.503 16.2795C420.709 16.3094 420.88 16.3546 421.086 16.3864C421.172 16.3995 421.3 16.3972 421.413 16.395C421.534 16.3927 421.647 16.379 421.761 16.3806C421.867 16.3822 421.981 16.3933 422.067 16.4102C422.458 16.4815 422.871 16.547 423.22 16.6318C423.562 16.7146 423.881 16.6565 424.221 16.6516C425.586 16.781 425.586 16.7829 426.502 16.7382C426.729 16.728 426.963 16.7158 427.197 16.7171C427.296 16.7168 427.389 16.7508 427.489 16.7696C427.774 16.8259 428.044 16.8766 428.441 16.8449C428.782 16.8172 429.144 16.8104 429.491 16.7921C429.959 16.7697 429.959 16.7698 430.756 16.8875C430.956 16.9174 431.168 16.913 431.424 16.897C431.644 16.8829 431.871 16.9109 432.028 16.9657C432.092 16.9884 432.072 17.0266 432.094 17.059C431.391 17.0916 430.682 17.1147 430.001 17.1625C429.561 17.1925 429.361 17.1111 429.069 17.0681C428.97 17.0531 428.863 17.021 428.771 17.0251C428.075 17.0558 427.38 17.0903 426.685 17.1305C426.6 17.1346 426.494 17.1788 426.487 17.2055C426.474 17.2551 426.652 17.3023 426.908 17.2996C427.248 17.2967 427.582 17.2633 427.888 17.3405C428.145 17.4084 428.464 17.438 428.84 17.4063C429.067 17.3885 429.309 17.3878 429.536 17.3718C430.138 17.3242 430.685 17.3321 431.141 17.4604C431.49 17.4937 431.83 17.4603 432.163 17.4421C432.412 17.428 432.653 17.4139 432.831 17.4496C433.208 17.5248 433.579 17.5999 434.096 17.5469C434.658 17.5986 435.085 17.7098 435.555 17.8C435.776 17.8432 435.947 17.8675 436.202 17.8381C436.308 17.8263 436.436 17.8259 436.549 17.8199C436.784 17.8096 437.032 17.7803 437.245 17.7911C437.458 17.8038 437.636 17.8585 437.828 17.8923C437.921 17.9092 438.028 17.9375 438.12 17.9353C438.475 17.9247 438.822 17.9046 439.17 17.8883C439.518 17.8739 439.865 17.8595 440.213 17.8451C440.505 17.8938 440.804 17.9425 441.096 17.9912C441.564 17.9688 442.032 17.9464 442.493 17.9259C443.011 17.9015 443.011 17.9034 443.758 18.0194C444.093 18.0718 444.447 18.0364 444.766 18.0106C445.298 17.969 445.654 18.0404 446.032 18.1155C446.11 18.1306 446.252 18.1397 446.344 18.1318C446.713 18.1039 447.033 18.124 447.303 18.1937C447.496 18.2427 447.688 18.265 447.922 18.2548C448.738 18.2161 449.554 18.1755 450.37 18.1406C450.469 18.1365 450.583 18.1533 450.675 18.1683C451.401 18.2825 451.408 18.2882 451.94 18.256C452.416 18.2279 452.856 18.2151 453.233 18.3189C453.312 18.3415 453.433 18.3736 453.518 18.3714C454.1 18.3506 454.689 18.3279 455.263 18.2937C455.526 18.2777 455.711 18.2828 455.917 18.3261C456.181 18.3806 456.416 18.4466 456.849 18.4205C458.047 18.3464 458.054 18.3578 459.476 18.4851C459.576 18.4943 459.71 18.4787 459.824 18.4707C460.065 18.4509 460.243 18.4771 460.456 18.5203C460.934 18.618 460.948 18.6123 461.402 18.5899C461.749 18.5717 462.111 18.5668 462.452 18.5372C462.976 18.4936 463.325 18.567 463.717 18.6363C464.03 18.6907 464.391 18.6438 464.725 18.6257C465.087 18.6055 465.413 18.6102 465.684 18.6819C465.869 18.7309 466.069 18.757 466.303 18.7468C467.119 18.71 467.934 18.6694 468.75 18.6326C468.85 18.6285 468.971 18.6434 469.063 18.6565C469.874 18.7723 469.874 18.778 470.676 18.7317C470.931 18.7176 471.144 18.7131 471.336 18.7526C471.521 18.7902 471.721 18.8258 471.913 18.8615C472.261 18.8471 472.616 18.8422 472.956 18.8183C473.218 18.8004 473.403 18.8074 473.609 18.8469C473.88 18.8975 474.109 18.9865 474.534 18.9413C474.754 18.9197 475.009 18.9246 475.229 18.9049C475.491 18.8793 475.669 18.894 475.876 18.943C476.132 19.0014 476.396 19.0616 476.807 19.0298C477.261 18.9941 477.743 18.987 478.204 18.9589C478.46 18.9429 478.638 18.9576 478.844 19.0065C479.101 19.0687 479.392 19.1079 479.79 19.0819C480.598 19.0318 480.605 19.0413 481.395 19.1591C481.594 19.189 481.807 19.1845 482.063 19.1685C482.283 19.1545 482.51 19.1824 482.667 19.2373C482.817 19.2978 482.803 19.336 482.818 19.3684ZM419.296 2.35838C419.062 2.36862 418.828 2.38077 418.485 2.21587C418.463 2.18733 418.477 2.15297 418.427 2.12832C418.312 2.07717 418.134 2.04147 417.921 2.03639C417.538 2.02992 417.077 2.09614 417.085 2.1457C417.093 2.18764 417.214 2.22351 417.449 2.25713C417.548 2.27018 417.627 2.29283 417.719 2.30781C417.99 2.35086 418.204 2.43606 418.594 2.39102C418.521 2.27299 418.557 2.332 418.594 2.39102C418.559 2.4636 418.667 2.51477 418.923 2.53498C418.994 2.54049 419.1 2.53634 419.157 2.52473C419.376 2.48211 419.411 2.4248 419.245 2.27463C419.217 2.2995 419.239 2.34329 419.303 2.35454C419.367 2.36579 419.523 2.3558 419.601 2.34221C419.799 2.30538 419.898 2.25739 419.848 2.21749C419.819 2.1966 419.684 2.17031 419.599 2.17056C419.449 2.17101 419.315 2.21337 419.296 2.35838ZM477.037 24.3027C476.519 24.3405 475.922 24.3289 475.405 24.4048C475.313 24.4185 475.222 24.4531 475.215 24.4798C475.208 24.497 475.35 24.5214 475.436 24.5345C475.628 24.5644 475.841 24.5542 476.089 24.5439C476.465 24.5294 476.686 24.6165 476.978 24.6595C477.071 24.6726 477.191 24.6817 477.291 24.6776C477.865 24.653 478.433 24.6265 479.008 24.5981C479.107 24.5921 479.213 24.5784 479.298 24.561C479.581 24.5048 479.552 24.4687 479.275 24.4275C478.969 24.3827 478.726 24.3071 478.413 24.2718C477.965 24.2217 477.512 24.2917 477.037 24.3027ZM436.743 25.8163C436.395 25.8326 436.054 25.8489 435.707 25.8652C435.593 25.8713 435.473 25.8735 435.366 25.8815C435.146 25.8955 434.984 25.936 434.878 25.9993C435.042 26.0484 435.241 26.0764 435.461 26.07C435.809 26.0575 436.149 26.0317 436.497 26.0249C436.873 26.0162 437.095 26.1013 437.386 26.1443C437.479 26.1574 437.592 26.159 437.699 26.1606C438.224 26.1666 438.542 26.0665 438.441 25.9275C438.368 25.8191 438.098 25.755 437.771 25.7694C437.431 25.7837 437.083 25.8 436.743 25.8163ZM479.421 21.4766C479.506 21.4439 479.598 21.4207 479.64 21.392C479.767 21.2944 479.716 21.222 479.48 21.1465C479.195 21.0539 478.848 21.1178 478.529 21.1283C478.451 21.1305 478.366 21.1708 478.324 21.1957C478.296 21.213 478.296 21.2492 478.339 21.2586C478.688 21.3339 479.058 21.4033 479.421 21.4766ZM417.751 16.0284C417.411 16.0447 417.063 16.0572 416.723 16.0792C416.638 16.0851 416.56 16.1216 416.511 16.1465C416.419 16.1926 416.52 16.2552 416.811 16.2601C417.144 16.2667 417.492 16.2332 417.839 16.2169C418.279 16.1965 418.541 16.1252 418.377 16.0646C418.22 16.006 418.006 15.9952 417.751 16.0284ZM44.0033 13.0784C44.2303 13.0682 44.4645 13.0599 44.6914 13.0458C44.9042 13.0318 45.067 12.9894 45.1725 12.9261C44.9943 12.8771 44.795 12.851 44.575 12.8574C44.2274 12.8699 43.8869 12.8861 43.5464 12.9062C43.3336 12.9183 43.1284 12.9609 43.0797 13.0259C43.0308 13.0756 43.5067 13.1028 44.0033 13.0784ZM387.663 11.7495C387.755 11.7664 387.848 11.8005 387.94 11.8002C388.168 11.7995 388.402 11.7874 388.615 11.7676C388.707 11.7597 388.777 11.7252 388.819 11.6984C388.847 11.6811 388.84 11.6506 388.797 11.6355C388.59 11.5446 387.767 11.5795 387.633 11.6848C387.62 11.7039 387.655 11.7286 387.663 11.7495ZM365.106 1.37345C365.128 1.4039 365.135 1.43439 365.164 1.46482C365.222 1.52186 365.379 1.56336 365.606 1.59128C365.783 1.54307 365.874 1.4894 365.867 1.43221C365.859 1.40171 365.837 1.37124 365.808 1.34081C365.751 1.28377 365.594 1.2423 365.366 1.21438C365.189 1.26068 365.105 1.31433 365.106 1.37345ZM495.897 25.97C495.833 25.995 495.77 26.02 495.699 26.0431C495.891 26.0978 496.069 26.1144 496.204 26.0835C496.289 26.0642 496.338 26.0354 496.401 26.0104C496.209 25.9557 496.038 25.941 495.897 25.97ZM491.485 26.2427C491.578 26.2596 491.663 26.2822 491.763 26.2933C491.926 26.3119 492.075 26.279 492.187 26.21C492.095 26.1931 492.009 26.1705 491.91 26.1594C491.746 26.1408 491.598 26.1737 491.485 26.2427ZM494.277 25.8852C494.228 25.9312 494.328 25.969 494.591 26.0006C494.654 25.9756 494.739 25.9525 494.781 25.9257C494.852 25.8816 494.73 25.8419 494.474 25.8122C494.404 25.8353 494.34 25.8603 494.277 25.8852ZM479.259 23.8745C479.21 23.9204 479.31 23.9582 479.573 23.9899C479.637 23.9649 479.722 23.9417 479.764 23.9149C479.834 23.8708 479.713 23.8311 479.457 23.8014C479.386 23.8245 479.323 23.8495 479.259 23.8745ZM458.636 10.441C458.573 10.466 458.509 10.491 458.439 10.5141C458.631 10.5688 458.809 10.5854 458.943 10.5545C459.028 10.5352 459.078 10.5064 459.141 10.4814C458.949 10.4267 458.778 10.412 458.636 10.441ZM438.969 3.34046C439.14 3.3533 439.281 3.32618 439.401 3.25526C439.309 3.23837 439.223 3.21574 439.123 3.20459C438.96 3.18601 438.811 3.21889 438.699 3.28789C438.791 3.30669 438.884 3.32356 438.969 3.34046ZM428.577 2.92357C428.513 2.94856 428.45 2.97354 428.379 2.99664C428.571 3.05137 428.749 3.068 428.884 3.03708C428.968 3.01775 429.018 2.98899 429.081 2.96401C428.889 2.90928 428.718 2.89645 428.577 2.92357ZM358.121 1.39258C358.057 1.41757 357.994 1.44256 357.923 1.46566C358.115 1.52039 358.293 1.53701 358.428 1.50609C358.512 1.48676 358.562 1.458 358.625 1.43302C358.433 1.37829 358.262 1.36546 358.121 1.39258ZM7.67243 17.9655C7.57988 17.9486 7.48742 17.9317 7.40194 17.9129C7.19685 17.965 7.13371 18.0129 7.24785 18.0488C7.31919 18.0714 7.42579 18.0845 7.51834 18.1014C7.73053 18.0492 7.7795 18.0033 7.67243 17.9655Z" fill="#FFE492"/>
<path d="M48.6974 10.9219C47.8815 10.9606 47.073 11.0088 46.2569 11.0341C45.824 11.0469 45.6692 11.1293 45.4929 11.2062C45.3519 11.2676 45.1888 11.2872 44.9263 11.2994C42.7129 11.3995 40.5065 11.5053 38.3002 11.6092C38.0229 11.5853 37.8874 11.5456 37.9506 11.4978C37.9857 11.469 38.0703 11.4287 38.1554 11.4247C39.6664 11.3496 41.1702 11.2726 42.6886 11.2127C43.1214 11.1961 43.2409 11.1119 43.4599 11.0426C43.5305 11.0195 43.5869 10.985 43.6789 10.9713C43.771 10.9558 43.9059 10.9573 44.0265 10.9531C46.467 10.8371 48.9075 10.723 51.3479 10.6069C51.6251 10.6309 51.7606 10.6705 51.6975 10.7184C51.6624 10.7471 51.5778 10.7874 51.4927 10.7914C50.5562 10.8343 49.6267 10.8772 48.6974 10.9219Z" fill="#FFE492"/>
<path d="M495.989 20.0613C495.62 20.0853 495.152 20.1191 494.767 20.0097C494.581 19.9568 494.382 19.9403 494.141 19.9525C493.793 19.9726 493.439 19.9889 493.084 20.0014C492.992 20.0036 492.871 19.983 492.778 19.9661C492.579 19.9324 492.408 19.8757 492.194 19.8611C491.981 19.8464 491.726 19.8892 491.506 19.8803C491.215 19.8678 491.093 19.8167 491.171 19.7688C491.213 19.742 491.297 19.7036 491.39 19.6976C492.702 19.6231 492.709 19.623 493.079 19.6906C493.364 19.7431 493.628 19.8014 494.032 19.7678C494.372 19.7401 494.734 19.7332 495.082 19.715C495.564 19.6907 495.564 19.6926 496.347 19.8104C496.546 19.8403 496.759 19.8378 497.014 19.8198C497.234 19.8058 497.448 19.8357 497.626 19.8867C497.513 19.9518 497.35 19.9943 497.131 20.0064C496.776 20.0265 496.428 20.0409 495.989 20.0613Z" fill="#FFE492"/>
<path d="M482.915 19.5047C483.809 19.4619 484.71 19.4249 485.603 19.3764C485.972 19.3562 486.264 19.3763 486.52 19.4404C486.798 19.5102 487.11 19.5035 487.451 19.4891C487.664 19.4809 487.87 19.5107 488.013 19.5637C488.07 19.5846 488.056 19.6228 488.078 19.6532C487.298 19.6899 486.51 19.7286 485.723 19.7615C485.631 19.7656 485.517 19.7468 485.431 19.7318C485.239 19.7 485.075 19.6432 484.869 19.6324C484.428 19.607 483.989 19.6598 483.542 19.6707C483.329 19.6752 483.123 19.6472 482.98 19.5961C482.923 19.5715 482.937 19.5352 482.915 19.5047Z" fill="#FFE492"/>
<path d="M159.37 3.76837C160.299 3.72361 161.228 3.68078 162.158 3.63603C162.435 3.66189 162.563 3.69964 162.507 3.74749C162.472 3.7762 162.387 3.81651 162.302 3.82058C160.444 3.912 158.585 3.99959 156.734 4.08717C156.456 4.06131 156.328 4.02356 156.384 3.97571C156.419 3.947 156.504 3.90669 156.589 3.90262C157.511 3.85598 158.44 3.81312 159.37 3.76837Z" fill="#FFE492"/>
<path d="M16.092 14.8007C15.6733 14.8058 15.2345 14.878 14.7654 14.8258C14.673 14.8166 14.5448 14.7863 14.5516 14.7691C14.5653 14.7403 14.65 14.7037 14.742 14.6919C15.1458 14.6429 15.6496 14.6356 15.8533 14.501C15.9516 14.4319 16.1358 14.4083 16.3839 14.3942C16.6462 14.3781 16.8308 14.3832 17.0372 14.4228C17.3076 14.4736 17.5362 14.5686 17.9612 14.5176C17.983 14.5481 18.033 14.5824 18.0122 14.6112C17.9913 14.6399 17.8997 14.667 17.8148 14.6883C17.7371 14.7077 17.6308 14.7252 17.5315 14.7313C17.0635 14.7557 16.5954 14.7762 16.092 14.8007Z" fill="#FFE492"/>
<path d="M385.467 13.511C385.814 13.4947 386.176 13.486 386.516 13.4582C386.786 13.4364 386.956 13.4493 387.17 13.4944C387.533 13.5735 387.554 13.5658 388.442 13.5746C388.541 13.5762 388.662 13.6045 388.72 13.6291C388.755 13.6424 388.706 13.6788 388.664 13.698C388.6 13.723 388.509 13.7558 388.423 13.756C387.863 13.7634 387.297 13.8778 386.748 13.7496C386.47 13.6856 386.164 13.6559 385.789 13.6857C385.562 13.7036 385.321 13.7119 385.086 13.7203C384.859 13.7286 384.625 13.7083 384.482 13.6515C384.275 13.5681 384.395 13.5353 384.764 13.5399C384.999 13.543 385.232 13.5213 385.467 13.511Z" fill="#FFE492"/>
<path d="M514.297 26.4445C514.743 26.424 515.19 26.3997 515.644 26.383C515.736 26.3789 515.85 26.3996 515.936 26.4127C516.277 26.4691 516.229 26.5668 516.244 26.6529C516.253 26.7428 515.466 26.8179 515.132 26.7577C514.762 26.6899 514.427 26.6125 513.917 26.6562C513.718 26.6721 513.483 26.6383 513.355 26.5832C513.162 26.5035 513.268 26.4706 513.63 26.4752C513.843 26.4784 514.07 26.4567 514.297 26.4445Z" fill="#FFE492"/>
<path d="M288.588 0.834353C289.049 0.811944 289.51 0.778091 289.971 0.774782C290.241 0.772054 290.377 0.834666 290.313 0.880701C290.278 0.909459 290.194 0.94983 290.109 0.953908C289.187 1.00255 288.264 1.04355 287.342 1.08837C287.072 1.06245 286.937 1.02275 287 0.976714C287.035 0.947956 287.12 0.909496 287.205 0.903507C287.666 0.875368 288.127 0.856762 288.588 0.834353Z" fill="#FFE492"/>
<path d="M505.396 20.2093C505.843 20.1889 506.296 20.1588 506.743 20.1479C506.977 20.1434 507.163 20.1868 507.192 20.2364C507.206 20.2592 507.094 20.2997 507.001 20.3095C506.364 20.3764 505.675 20.3862 505.008 20.4207C504.796 20.4309 504.568 20.401 504.439 20.3479C504.246 20.2663 504.353 20.2354 504.715 20.2401C504.942 20.2413 505.169 20.2196 505.396 20.2093Z" fill="#FFE492"/>
<path d="M397.207 13.7411C397.433 13.7308 397.667 13.7052 397.887 13.7122C398.121 13.7211 398.271 13.7761 398.343 13.8315C398.422 13.8945 398.416 13.9539 398.346 14.0077C398.234 14.1 398.12 14.0965 397.857 14.036C397.451 13.9415 397.423 13.9531 396.621 13.9594C396.529 13.9596 396.415 13.9313 396.344 13.9066C396.237 13.8686 396.292 13.809 396.54 13.7738C396.724 13.7483 396.98 13.7514 397.207 13.7411Z" fill="#FFE492"/>
<path d="M488.746 19.6198C489.08 19.6035 489.413 19.5777 489.746 19.5766C489.981 19.574 490.166 19.6174 490.188 19.6652C490.195 19.6881 490.089 19.7266 490.004 19.7384C489.601 19.7912 489.146 19.7964 488.707 19.815C488.501 19.8233 488.273 19.7934 488.145 19.7402C487.952 19.6605 488.065 19.6238 488.413 19.6342C488.52 19.6377 488.633 19.6259 488.746 19.6198Z" fill="#FFE492"/>
<path d="M436.189 17.3892C435.693 17.4136 435.224 17.3864 435.259 17.3366C435.307 17.2714 435.512 17.2287 435.725 17.2166C436.066 17.1964 436.406 17.1801 436.754 17.1676C436.973 17.1592 437.173 17.1873 437.351 17.2365C437.245 17.298 437.083 17.3425 436.87 17.3565C436.65 17.3705 436.416 17.3789 436.189 17.3892Z" fill="#FFE492"/>
<path d="M432.926 17.1522C433.26 17.1359 433.593 17.1101 433.926 17.109C434.161 17.1064 434.346 17.1498 434.368 17.1976C434.375 17.2205 434.269 17.259 434.185 17.2708C433.781 17.3236 433.327 17.3288 432.887 17.3474C432.681 17.3557 432.453 17.3258 432.325 17.2726C432.132 17.1929 432.245 17.1562 432.593 17.1666C432.7 17.1701 432.813 17.1583 432.926 17.1522Z" fill="#FFE492"/>
<path d="M393.171 13.7357C393.504 13.7194 393.837 13.6935 394.171 13.6905C394.405 13.6879 394.59 13.7314 394.612 13.7791C394.62 13.802 394.514 13.8387 394.429 13.8523C394.025 13.9052 393.571 13.9104 393.131 13.9289C392.926 13.9372 392.698 13.9073 392.569 13.8541C392.377 13.7744 392.489 13.7377 392.837 13.7481C392.944 13.7516 393.057 13.7398 393.171 13.7357Z" fill="#FFE492"/>
<path d="M391.303 13.6271C391.658 13.6107 391.771 13.6008 391.885 13.6005C392.098 13.5998 392.318 13.6221 392.447 13.6772C392.64 13.7569 392.526 13.7802 392.179 13.7851C391.731 13.7903 391.292 13.8317 390.845 13.8408C390.611 13.8453 390.426 13.7999 390.411 13.7522C390.403 13.7293 390.509 13.6888 390.594 13.6809C390.892 13.6513 391.218 13.6331 391.303 13.6271Z" fill="#FFE492"/>
<path d="M429.914 2.22272C429.687 2.23298 429.446 2.2605 429.233 2.25158C428.949 2.23906 428.835 2.18775 428.905 2.1397C428.947 2.11279 429.025 2.07429 429.11 2.06829C429.564 2.04012 430.025 2.02147 430.478 2.00096C430.748 2.02883 430.87 2.06864 430.799 2.11669C430.757 2.1436 430.68 2.18019 430.595 2.18811C430.375 2.20791 430.141 2.21246 429.914 2.22272Z" fill="#FFE492"/>
<path d="M154.276 4.008C154.496 4.00542 154.695 4.02969 154.866 4.07703C154.761 4.13861 154.605 4.17929 154.393 4.19717C154.286 4.20515 154.166 4.21125 154.052 4.21351C153.832 4.21801 153.633 4.19182 153.462 4.14449C153.568 4.08291 153.73 4.04221 153.936 4.02435C154.042 4.01637 154.163 4.01409 154.276 4.008Z" fill="#FFE492"/>
<path d="M502.963 20.2071C502.955 20.1516 503.386 20.0872 503.777 20.0879C503.983 20.0892 504.196 20.1153 504.317 20.1666C504.503 20.2446 504.397 20.2755 504.049 20.2708C503.836 20.2676 503.61 20.3009 503.397 20.2958C503.155 20.2946 503.013 20.2529 502.963 20.2071Z" fill="#FFE492"/>
<path d="M399.262 13.9678C399.255 13.9467 399.219 13.9219 399.24 13.9027C399.373 13.7969 400.188 13.7619 400.402 13.8532C400.438 13.8703 400.453 13.899 400.425 13.9163C400.383 13.9433 400.305 13.978 400.22 13.9859C400 14.0057 399.774 14.016 399.547 14.0186C399.447 14.0189 399.354 13.9866 399.262 13.9678Z" fill="#FFE492"/>
<path d="M18.6152 14.4869C17.7787 14.5297 17.7644 14.5259 17.9119 14.4297C18.0454 14.3431 18.293 14.2907 18.6548 14.2896C18.7613 14.2892 18.8747 14.2851 18.967 14.2925C19.0665 14.3017 19.2088 14.3204 19.2304 14.3433C19.2736 14.3872 19.1537 14.4355 18.9413 14.4687C18.8493 14.4843 18.7287 14.4808 18.6152 14.4869Z" fill="#FFE492"/>
<path d="M164.765 3.71069C164.517 3.74402 164.304 3.73318 164.147 3.67236C163.99 3.61154 164.238 3.53797 164.67 3.51941C164.783 3.51523 164.904 3.49955 165.01 3.50688C165.117 3.5123 165.224 3.53494 165.288 3.55774C165.402 3.5957 165.332 3.64765 165.105 3.69241C165.014 3.70993 164.879 3.70651 164.765 3.71069Z" fill="#FFE492"/>
<path d="M501.483 20.0673C501.546 20.0422 501.609 20.017 501.68 19.9938C501.942 20.0256 502.055 20.0636 501.985 20.108C501.943 20.135 501.859 20.1583 501.796 20.1834C501.534 20.1516 501.427 20.1116 501.483 20.0673Z" fill="#FFE492"/>
<path d="M30.0553 36.3422C30.0549 36.3192 30.1534 36.2824 30.2312 36.2745C30.3796 36.2607 30.5639 36.2869 30.6921 36.3402C30.8701 36.4164 30.7647 36.4569 30.4389 36.4369C30.2122 36.4222 30.0559 36.3844 30.0553 36.3422Z" fill="#FFE492"/>
<path d="M402.132 12.1722C402.225 12.1891 402.317 12.2061 402.402 12.225C402.283 12.2963 402.135 12.3274 401.979 12.3087C401.88 12.2975 401.794 12.2748 401.702 12.2578C401.821 12.1865 401.962 12.1593 402.132 12.1722Z" fill="#FFE492"/>
<path d="M399.678 12.0917C399.819 12.0625 399.989 12.0774 400.188 12.1323C400.125 12.1574 400.069 12.1864 399.991 12.2058C399.857 12.2368 399.68 12.222 399.488 12.1651C399.544 12.142 399.608 12.1169 399.678 12.0917Z" fill="#FFE492"/>
<path d="M397.795 12.1806C397.887 12.1976 397.98 12.2145 398.065 12.2334C397.946 12.3047 397.805 12.3358 397.642 12.3171C397.542 12.3059 397.457 12.2832 397.365 12.2662C397.484 12.195 397.625 12.1658 397.795 12.1806Z" fill="#FFE492"/>
<path d="M396.405 12.0819C396.512 12.1199 396.456 12.1661 396.252 12.2186C396.159 12.2016 396.053 12.1885 395.982 12.1657C395.868 12.1296 395.924 12.0814 396.136 12.029C396.221 12.0479 396.313 12.0649 396.405 12.0819Z" fill="#FFE492"/>
</svg>
